<svg version="1.1" preserveAspectRatio="xMidYMid meet" xmlns="http://www.w3.org/2000/svg" xmlns:xlink="http://www.w3.org/1999/xlink" viewBox="-273.063 0.000 1546.125 1000.000" style="cursor: pointer;"><defs><radialGradient id="gradient-f7ecfc41-9b74-4986-9de1-5187ec8bc66b" gradientUnits="objectBoundingBox" gradientTransform="translate(0.5, 0.5) scale(1, 1.546) translate(-0.5, -0.5)" cx="0.875" cy="0.125" r="1.030"><stop offset="0.000" stop-color="#ff86dc" stop-opacity="1"></stop><stop offset="0.250" stop-color="#fb76d7" stop-opacity="1"></stop><stop offset="0.500" stop-color="#e162d0" stop-opacity="1"></stop><stop offset="0.750" stop-color="#c550c9" stop-opacity="1"></stop><stop offset="1.000" stop-color="#ab43c5" stop-opacity="1"></stop></radialGradient><g transform="matrix(1.896, 0.000, 0.000, 1.896, 401.222, 321.413)" fill="#fff" stroke="none" stroke-width="1" id="def-bb300bda-3e19-4e86-b40a-53a6e565cd54"><g transform="translate(-10.909999999999997, -12.185000000000002)"><g><path d=" M33.533,37.725 c-0.602,0.457 -0.896,1.234 -0.734,1.971 c0.164,0.737,0.74,1.313,1.479,1.475 c0.607,0.133,1.17,0.124,2.9 -1.206 c0.77 -0.59,1.906 -1.585,2.955 -2.973 l0.459 -0.609 c3.93 -5.227,13.131 -17.465,26.42 -16.801 c10.959,0.8,18.729,9.076,22.465,23.936 c0.127,0.505,0.205,0.815,0.291,1.053 c0.57,2.43,1.529,5.458,2.908,6.454 c0.344,0.248,0.738,0.366,1.131,0.366 c0.602,0,1.193 -0.279,1.57 -0.803 c0.605 -0.836,0.443 -1.993 -0.348 -2.634 c-0.383 -0.494 -1.102 -2.563 -1.527 -4.412 c-0.025 -0.11 -0.061 -0.217 -0.105 -0.32 c-0.035 -0.126 -0.105 -0.401 -0.166 -0.648 c-0.594 -2.355 -2.166 -8.612 -5.982 -14.496 c-4.93 -7.598 -11.65 -11.755 -19.979 -12.356 c-0.014 -0.001 -0.027 -0.001 -0.041 -0.002 C51.877,14.935,41.801,28.335,37.5,34.057 l-0.453,0.601 c-1.178,1.557 -2.568,2.526 -3.049,2.807 C33.836,37.528,33.68,37.615,33.533,37.725 z"></path><path d=" M82.738,48.592 c1.459 -3.648,1.494 -7.417,0.096 -10.34 c-1.248 -2.607 -3.574 -4.497 -6.725 -5.462 c-4.627 -1.416 -10.236,1.154 -15.375,7.041 c-0.066,0.072 -7.381,7.766 -15.061,12.469 c-0.057,0.034 -5.682,3.408 -11.553,5.007 c-1.031,0.281 -1.639,1.344 -1.357,2.375 c0.279,1.031,1.344,1.64,2.375,1.358 c6.387 -1.739,12.287 -5.278,12.545 -5.434 c8.332 -5.102,15.891 -13.144,15.955 -13.218 c3.119 -3.574,7.736 -7.001,11.336 -5.898 c2.119,0.649,3.59,1.804,4.369,3.433 c0.934,1.949,0.861,4.584 -0.199,7.231 c-1.971,4.926 -8.109,10.875 -17.285,16.75 c-4.602,2.948 -16.186,10.181 -24.367,13.679 c-0.984,0.42 -1.439,1.557 -1.02,2.54 c0.314,0.734,1.029,1.174,1.779,1.174 c0.254,0,0.512 -0.05,0.76 -0.156 c8.449 -3.612,20.252 -10.979,24.936 -13.978 C70.914,62.702,79.83,55.857,82.738,48.592 z"></path><path d=" M51.576,34.146 c-0.879,0.968 -1.666,2.006 -2.516,2.998 c-1.111,1.3 -2.326,2.514 -3.596,3.659 c-1.303,1.178 -2.359,2.021 -3.898,2.904 c-1.631,0.937 -3.295,1.884 -4.986,2.707 c-0.582,0.284 -1.08,0.468 -1.734,0.665 c-1.01,0.303 -1.637,1.345 -1.352,2.38 c0.273,0.998,1.369,1.655,2.379,1.352 c1.979 -0.595,3.773 -1.613,5.559 -2.628 c1.508 -0.858,3.006 -1.63,4.393 -2.685 c2.703 -2.055,5.029 -4.455,7.168 -7.08 c0.865 -1.063,1.791 -2.076,2.758 -3.048 c0.529 -0.531,1.076 -1.043,1.633 -1.543 c0.291 -0.26,0.586 -0.514,0.883 -0.765 c0.152 -0.127,0.305 -0.252,0.459 -0.377 c0.041 -0.033,0.342 -0.27,0.418 -0.332 c1.348 -1.032,2.783 -1.949,4.293 -2.725 c1.426 -0.733,2.857 -1.247,4.594 -1.608 c0.576 -0.12,0.701 -0.133,1.133 -0.177 c1.049 -0.109,1.936 -0.798,1.936 -1.935 c0 -0.973 -0.885 -2.044 -1.936 -1.935 C62.168,24.695,56.186,29.068,51.576,34.146 z"></path><path d=" M36.518,71.196 c4.203 -1.443,25.787 -9.502,37.871 -26.443 c0.621 -0.87,0.42 -2.078 -0.451 -2.698 c-0.869 -0.621 -2.078 -0.419 -2.697,0.451 c-11.4,15.979 -31.973,23.654 -35.98,25.03 c-0.086,0.029 -0.137,0.048 -0.156,0.056 c-1,0.378 -1.502,1.495 -1.125,2.495 c0.293,0.774,1.029,1.25,1.811,1.25 c0.219,0,0.443 -0.038,0.66 -0.117 L36.518,71.196 z"></path><path d=" M89.17,82.715 c-2.682 -0.894 -5.965 -3.231 -9.137 -5.491 c-4.598 -3.274 -8.564 -6.102 -11.799 -5.544 c-2.43,0.42 -6.674,3.132 -13.375,7.55 c-4.832,3.185 -10.307,6.794 -12.689,7.435 c-1.031,0.278 -1.643,1.34 -1.365,2.372 c0.232,0.864,1.014,1.433,1.867,1.433 c0.166,0,0.336 -0.021,0.504 -0.067 c2.984 -0.804,8.244 -4.271,13.813 -7.941 c4.498 -2.965,10.096 -6.655,11.904 -6.967 c1.643 -0.28,5.664,2.581,8.895,4.883 c3.406,2.425,6.928,4.933,10.158,6.01 c1.014,0.339,2.109 -0.21,2.447 -1.223 C90.73,84.148,90.182,83.052,89.17,82.715 z"></path><path d=" M84.324,92.193 c-1.559 -0.564 -4.094 -2.13 -6.547 -3.645 c-5.18 -3.2 -8.471 -5.142 -10.834 -4.734 c-2.393,0.413 -7.416,3.829 -15.852,9.986 c-1.033,0.753 -1.924,1.404 -2.541,1.842 c-0.873,0.616 -1.082,1.824 -0.465,2.696 c0.377,0.534,0.975,0.819,1.582,0.819 c0.385,0,0.775 -0.115,1.115 -0.355 c0.643 -0.454,1.545 -1.113,2.59 -1.876 c3.357 -2.451,12.275 -8.961,14.209 -9.295 c1.207 -0.082,5.561,2.603,8.162,4.209 c2.74,1.693,5.328,3.292,7.266,3.992 c1.004,0.364,2.113 -0.157,2.477 -1.162 C85.85,93.666,85.33,92.556,84.324,92.193 z"></path><path d=" M77.789,101.813 c-1.086 -0.71 -2.086 -1.423 -3.053 -2.112 c-3.174 -2.266 -5.916 -4.224 -8.922 -3.702 c-3.387,0.584 -8.777,6.006 -9.824,7.086 c-0.742,0.768 -0.723,1.993,0.045,2.736 c0.375,0.364,0.861,0.545,1.346,0.545 c0.506,0,1.01 -0.197,1.391 -0.589 c2.59 -2.677,6.271 -5.718,7.701 -5.965 c1.412 -0.242,3.547,1.277,6.018,3.039 c0.951,0.679,2.029,1.449,3.184,2.203 c0.896,0.584,2.096,0.332,2.678 -0.563 C78.936,103.596,78.684,102.397,77.789,101.813 z"></path><path d=" M94.816,61.872 c-1.613 -0.681 -3.299 -1.397 -4.656 -2.527 c-1.496 -1.243 -2.191 -2.876 -2.502 -4.761 c-0.404 -2.458 -4.133 -1.412 -3.73,1.029 c0.826,5.02,4.521,7.736,8.936,9.601 c0.971,0.411,2.063,0.303,2.646 -0.694 C95.992,63.699,95.789,62.283,94.816,61.872 z"></path><path d=" M91.061,71.968 c-1.453 -0.447 -2.555 -1.015 -4.094 -1.923 c-2.816 -1.664 -5.385 -4.076 -6.633 -7.155 c-0.396 -0.976 -1.273 -1.656 -2.381 -1.351 c-0.928,0.255 -1.748,1.401 -1.352,2.38 c2.307,5.686,7.6,9.984,13.43,11.78 C92.424,76.436,93.438,72.701,91.061,71.968 z"></path><polygon points="16.895,15.685 35.697,15.685 35.697,12.685 13.895,12.685 13.895,34.487 16.895,34.487  "></polygon><polygon points="92.787,12.685 92.787,15.685 111.59,15.685 111.59,34.487 114.59,34.487 114.59,12.685  "></polygon><polygon points="16.865,91.513 13.865,91.513 13.865,113.315 35.666,113.315 35.666,110.315 16.865,110.315  "></polygon><polygon points="111.559,110.315 92.756,110.315 92.756,113.315 114.559,113.315 114.559,91.513 111.559,91.513  "></polygon></g></g></g><path d="M111.372,632.132 L105.800,632.132 L96.969,610.656 L65.721,610.656 L56.890,632.132 L51.361,632.132 L77.723,568.691 L85.053,568.691 L111.372,632.132 Z M81.324,572.720 L67.607,606.112 L95.083,606.112 L81.324,572.720 Z M155.652,632.903 Q146.950,632.903,141.335,630.160 Q135.720,627.417,132.976,621.737 Q130.233,616.057,130.233,607.098 L130.233,607.098 L130.233,568.691 L135.634,568.691 L135.634,607.698 Q135.634,614.900,137.799,619.401 Q139.963,623.902,144.357,626.045 Q148.751,628.188,155.652,628.188 L155.652,628.188 Q162.553,628.188,166.968,626.045 Q171.384,623.902,173.548,619.401 Q175.713,614.900,175.713,607.698 L175.713,607.698 L175.713,568.691 L180.985,568.691 L180.985,607.098 Q180.985,616.057,178.263,621.737 Q175.541,627.417,169.948,630.160 Q164.354,632.903,155.652,632.903 L155.652,632.903 Z M228.180,632.132 L222.822,632.132 L222.822,573.363 L198.817,573.363 L198.817,568.691 L252.142,568.691 L252.142,573.363 L228.180,573.363 L228.180,632.132 Z M275.760,632.132 L270.359,632.132 L270.359,568.691 L275.760,568.691 L275.760,597.111 L316.354,597.111 L316.354,568.691 L321.755,568.691 L321.755,632.132 L316.354,632.132 L316.354,601.997 L275.760,601.997 L275.760,632.132 Z M353.175,601.826 L353.175,627.588 L390.897,627.588 L390.897,632.132 L347.817,632.132 L347.817,568.691 L390.468,568.691 L390.468,573.235 L353.175,573.235 L353.175,597.282 L386.181,597.282 L386.181,601.826 L353.175,601.826 Z M460.124,624.545 L460.124,568.691 L465.268,568.691 L465.268,632.132 L459.652,632.132 L417.859,576.278 L417.859,632.132 L412.715,632.132 L412.715,568.691 L418.330,568.691 L460.124,624.545 Z M512.805,632.132 L507.447,632.132 L507.447,573.363 L483.443,573.363 L483.443,568.691 L536.767,568.691 L536.767,573.363 L512.805,573.363 L512.805,632.132 Z M560.386,632.132 L554.985,632.132 L554.985,568.691 L560.386,568.691 L560.386,632.132 Z M614.353,632.903 Q599.693,632.903,591.463,625.188 Q583.233,617.472,583.233,600.497 L583.233,600.497 Q583.233,584.080,591.592,576.000 Q599.950,567.920,615.082,567.920 L615.082,567.920 Q619.454,567.920,623.269,568.455 Q627.084,568.991,631.071,570.106 L631.071,570.106 L631.071,574.864 Q623.183,572.635,615.210,572.635 L615.210,572.635 Q602.351,572.635,595.642,579.279 Q588.934,585.923,588.934,600.326 L588.934,600.326 Q588.934,615.243,595.557,621.715 Q602.179,628.188,614.610,628.188 L614.610,628.188 Q618.940,628.188,622.798,627.567 Q626.656,626.945,631.071,625.445 L631.071,625.445 L631.071,630.246 Q623.526,632.903,614.353,632.903 L614.353,632.903 Z M703.942,632.132 L698.369,632.132 L689.539,610.656 L658.290,610.656 L649.460,632.132 L643.930,632.132 L670.292,568.691 L677.622,568.691 L703.942,632.132 Z M673.893,572.720 L660.176,606.112 L687.653,606.112 L673.893,572.720 Z M744.621,632.132 L739.263,632.132 L739.263,573.363 L715.258,573.363 L715.258,568.691 L768.582,568.691 L768.582,573.363 L744.621,573.363 L744.621,632.132 Z M792.201,632.132 L786.800,632.132 L786.800,568.691 L792.201,568.691 L792.201,632.132 Z M844.154,632.903 Q835.281,632.903,828.765,629.388 Q822.250,625.873,818.649,618.608 Q815.048,611.342,815.048,600.411 L815.048,600.411 Q815.048,589.481,818.692,582.215 Q822.336,574.949,828.872,571.434 Q835.409,567.920,844.154,567.920 L844.154,567.920 Q852.984,567.920,859.500,571.434 Q866.015,574.949,869.616,582.215 Q873.217,589.481,873.217,600.411 L873.217,600.411 Q873.217,611.342,869.573,618.608 Q865.929,625.873,859.414,629.388 Q852.898,632.903,844.154,632.903 L844.154,632.903 Z M844.154,628.188 Q855.170,628.188,861.407,621.480 Q867.644,614.771,867.644,600.626 L867.644,600.626 Q867.644,586.180,861.407,579.407 Q855.170,572.635,844.154,572.635 L844.154,572.635 Q833.138,572.635,826.901,579.322 Q820.664,586.009,820.664,600.197 L820.664,600.197 Q820.664,614.686,826.879,621.437 Q833.095,628.188,844.154,628.188 L844.154,628.188 Z M943.516,624.545 L943.516,568.691 L948.659,568.691 L948.659,632.132 L943.044,632.132 L901.250,576.278 L901.250,632.132 L896.107,632.132 L896.107,568.691 L901.722,568.691 L943.516,624.545 Z" id="def-a62f5c0e-9085-4524-bfb6-84d1b1918bae"></path><path d="M456.753,668.952 L462.788,652.886 L469.029,652.886 L469.029,678.262 L464.297,678.262 L464.297,660.104 L458.690,674.593 L454.627,674.593 L449.020,660.516 L449.020,678.262 L444.288,678.262 L444.288,652.886 L450.529,652.886 L456.753,668.952 Z M479.934,667.477 L479.934,673.890 L490.582,673.890 L490.582,678.262 L474.928,678.262 L474.928,652.886 L490.411,652.886 L490.411,657.258 L479.934,657.258 L479.934,663.105 L488.696,663.105 L488.696,667.477 L479.934,667.477 Z M510.917,655.749 L500.767,673.753 L511.089,673.753 L511.089,678.262 L494.183,678.262 L494.183,675.399 L504.333,657.395 L494.354,657.395 L494.354,652.886 L510.917,652.886 L510.917,655.749 Z M531.218,655.749 L521.068,673.753 L531.390,673.753 L531.390,678.262 L514.484,678.262 L514.484,675.399 L524.634,657.395 L514.655,657.395 L514.655,652.886 L531.218,652.886 L531.218,655.749 Z M545.501,678.588 Q540.700,678.588,537.983,675.433 Q535.265,672.278,535.265,665.574 L535.265,665.574 Q535.265,658.870,537.983,655.715 Q540.700,652.560,545.501,652.560 L545.501,652.560 Q550.302,652.560,553.011,655.715 Q555.720,658.870,555.720,665.574 L555.720,665.574 Q555.720,672.278,553.011,675.433 Q550.302,678.588,545.501,678.588 L545.501,678.588 Z M545.501,674.353 Q547.113,674.353,548.210,673.521 Q549.308,672.690,549.899,670.778 Q550.491,668.866,550.491,665.694 L550.491,665.694 Q550.491,662.402,549.908,660.439 Q549.325,658.476,548.227,657.635 Q547.130,656.795,545.501,656.795 L545.501,656.795 Q543.872,656.795,542.775,657.627 Q541.678,658.458,541.095,660.370 Q540.512,662.282,540.512,665.454 L540.512,665.454 Q540.512,668.746,541.095,670.709 Q541.678,672.673,542.775,673.513 Q543.872,674.353,545.501,674.353 L545.501,674.353 Z" id="def-4455ff42-01c6-4d26-b022-5d4f43f5bae8"></path><mask id="mask-03f433d8-0e9a-48ac-b436-613596f013a3" x="26.853" y="303.424" width="946.293" height="395.755" maskUnits="userSpaceOnUse" stroke-width="0"><rect x="44.842" y="321.413" width="910.316" height="359.777" fill="#000"></rect><use xlink:href="#def-bb300bda-3e19-4e86-b40a-53a6e565cd54" fill="#fff" stroke="#fff"></use><use xlink:href="#def-a62f5c0e-9085-4524-bfb6-84d1b1918bae" fill="#fff" stroke="#fff"></use><use xlink:href="#def-4455ff42-01c6-4d26-b022-5d4f43f5bae8" fill="#fff" stroke="#fff"></use></mask></defs><rect id="background-shape-0f2381e5-25d2-4d03-bfb0-dcd571c0f8c5" x="-273.063" y="0.000" width="1546.125" height="1000.000" fill="url(#gradient-f7ecfc41-9b74-4986-9de1-5187ec8bc66b)"></rect><g mask="url(#mask-03f433d8-0e9a-48ac-b436-613596f013a3)"><rect x="44.842" y="321.413" width="910.316" height="359.777" fill="#0d1324"></rect></g><g opacity="0"><rect fill="none" stroke="#fff" stroke-dasharray="11.07010739856802" stroke-dashoffset="0" stroke-width="1.8450178997613365" x="-263.063" y="10" width="1526.125" height="980"></rect><rect fill="none" stroke="#000" stroke-dasharray="11.07010739856802" stroke-dashoffset="11.07010739856802" stroke-width="1.8450178997613365" x="-263.063" y="10" width="1526.125" height="980"></rect></g><g opacity="1"><rect fill="none" stroke="#fff" stroke-dasharray="5.53505369928401" stroke-dashoffset="0" stroke-width="1.8450178997613365" x="-263.063" y="10" width="1526.125" height="980"></rect><rect fill="none" stroke="#000" stroke-dasharray="5.53505369928401" stroke-dashoffset="5.53505369928401" stroke-width="1.8450178997613365" x="-263.063" y="10" width="1526.125" height="980"></rect></g></svg>