<svg version="1.1" preserveAspectRatio="xMidYMid meet" xmlns="http://www.w3.org/2000/svg" xmlns:xlink="http://www.w3.org/1999/xlink" viewBox="-273.063 0.000 1546.125 1000.000" style="cursor: pointer;"><defs><radialGradient id="gradient-71171b96-d38a-4ea6-8e0e-87d92389f13c" gradientUnits="objectBoundingBox" gradientTransform="translate(0.5, 0.5) scale(1, 1.546) translate(-0.5, -0.5)" cx="0.875" cy="0.125" r="1.030"><stop offset="0.000" stop-color="#cff4fa" stop-opacity="1"></stop><stop offset="0.250" stop-color="#b5e3eb" stop-opacity="1"></stop><stop offset="0.500" stop-color="#96cfdc" stop-opacity="1"></stop><stop offset="0.750" stop-color="#77bccd" stop-opacity="1"></stop><stop offset="1.000" stop-color="#59abc1" stop-opacity="1"></stop></radialGradient><g transform="matrix(5.953, 0.000, 0.000, 5.953, 259.517, 109.835)" fill="#fff" stroke="none" stroke-width="1" id="def-0dc7eaf9-1a66-482b-a52a-44ae9b7d37d7"><g transform="translate(245.39999999999998, -362.3999999999999)"><path fill-rule="evenodd" clip-rule="evenodd" d=" M-171.3,403.5 c-2.4,0 -4.5,1.4 -5.5,3.5 c0,0 -0.1,0 -0.1,0 h-9.9 l-6.5 -17.2 c-0.5 -1.2 -1.7 -2 -3 -1.9 c-1.3,0.1 -2.4,1 -2.7,2.3 l-4.3,18.9 l-4 -43.4 c-0.1 -1.4 -1.2 -2.5 -2.7 -2.7 c-1.4 -0.1 -2.7,0.7 -3.2,2.1 l-12.5,41.6 h-16.2 c-1.6,0 -3,1.3 -3,3 c0,1.6,1.3,3,3,3 h18.4 c1.3,0,2.5 -0.9,2.9 -2.1 l8.7 -29 l4.3,46.8 c0.1,1.5,1.3,2.6,2.8,2.7 c0.1,0,0.1,0,0.2,0 c1.4,0,2.6 -1,2.9 -2.3 l6.2 -27.6 l3.7,9.8 c0.4,1.2,1.5,1.9,2.8,1.9 h11.9 c0.2,0,0.3 -0.1,0.5 -0.1 c1.1,1.7,3,2.8,5.1,2.8 c3.4,0,6.1 -2.7,6.1 -6.1 C-165.3,406.2 -168,403.5 -171.3,403.5 z"></path></g></g><path d="M341.666,710.142 Q357.408,712.879,365.084,722.022 Q372.760,731.165,372.760,745.343 L372.760,745.343 Q372.760,758.837,366.209,767.784 Q359.657,776.731,345.088,781.327 Q330.518,785.922,306.660,785.922 L306.660,785.922 Q296.686,785.922,287.592,785.336 Q278.498,784.749,267.449,783.380 L267.449,783.380 L267.449,642.965 Q278.303,640.716,288.472,639.690 Q298.642,638.663,310.864,638.663 L310.864,638.663 Q340.883,638.663,354.719,648.246 Q368.556,657.828,368.556,677.189 L368.556,677.189 Q368.556,689.901,361.955,698.457 Q355.355,707.013,341.666,710.142 L341.666,710.142 Z M311.744,648.637 Q293.361,648.637,279.574,651.277 L279.574,651.277 L279.574,705.448 L317.025,705.448 Q337.265,705.448,346.995,698.750 Q356.724,692.052,356.724,677.482 L356.724,677.482 Q356.724,667.118,352.177,660.811 Q347.630,654.504,337.803,651.570 Q327.976,648.637,311.744,648.637 L311.744,648.637 Z M308.615,775.949 Q328.563,775.949,339.954,772.526 Q351.346,769.104,356.137,762.308 Q360.929,755.512,360.929,744.756 L360.929,744.756 Q360.929,729.600,350.710,722.560 Q340.492,715.520,318.785,715.520 L318.785,715.520 L279.574,715.520 L279.574,774.091 Q286.321,775.069,293.068,775.509 Q299.815,775.949,308.615,775.949 L308.615,775.949 Z M541.825,784.847 L529.113,784.847 L508.970,735.858 L437.687,735.858 L417.544,784.847 L404.930,784.847 L465.066,640.130 L481.787,640.130 L541.825,784.847 Z M473.280,649.321 L441.990,725.493 L504.668,725.493 L473.280,649.321 Z M659.359,753.557 L718.028,640.130 L732.304,640.130 L732.304,784.847 L720.570,784.847 L720.570,658.708 L665.030,764.997 L653.198,764.997 L597.658,659.393 L597.658,784.847 L586.022,784.847 L586.022,640.130 L600.201,640.130 L659.359,753.557 Z" id="def-faed853b-cc84-4fdd-975e-b0ec9d8af4fc"></path><path d="M401.347,868.187 L415.115,831.538 L429.352,831.538 L429.352,889.425 L418.557,889.425 L418.557,848.005 L405.767,881.055 L396.497,881.055 L383.707,848.943 L383.707,889.425 L372.912,889.425 L372.912,831.538 L387.149,831.538 L401.347,868.187 Z M454.227,864.823 L454.227,879.451 L478.516,879.451 L478.516,889.425 L442.806,889.425 L442.806,831.538 L478.125,831.538 L478.125,841.512 L454.227,841.512 L454.227,854.849 L474.214,854.849 L474.214,864.823 L454.227,864.823 Z M524.904,838.070 L501.749,879.138 L525.295,879.138 L525.295,889.425 L486.730,889.425 L486.730,882.893 L509.885,841.825 L487.121,841.825 L487.121,831.538 L524.904,831.538 L524.904,838.070 Z M571.214,838.070 L548.059,879.138 L571.605,879.138 L571.605,889.425 L533.040,889.425 L533.040,882.893 L556.194,841.825 L533.431,841.825 L533.431,831.538 L571.214,831.538 L571.214,838.070 Z M603.794,890.168 Q592.843,890.168,586.644,882.972 Q580.444,875.775,580.444,860.482 L580.444,860.482 Q580.444,845.189,586.644,837.992 Q592.843,830.795,603.794,830.795 L603.794,830.795 Q614.746,830.795,620.926,837.992 Q627.106,845.189,627.106,860.482 L627.106,860.482 Q627.106,875.775,620.926,882.972 Q614.746,890.168,603.794,890.168 L603.794,890.168 Z M603.794,880.507 Q607.471,880.507,609.974,878.610 Q612.478,876.713,613.827,872.352 Q615.176,867.991,615.176,860.755 L615.176,860.755 Q615.176,853.246,613.846,848.767 Q612.517,844.289,610.013,842.372 Q607.510,840.456,603.794,840.456 L603.794,840.456 Q600.079,840.456,597.576,842.353 Q595.072,844.250,593.743,848.611 Q592.413,852.972,592.413,860.208 L592.413,860.208 Q592.413,867.718,593.743,872.196 Q595.072,876.674,597.576,878.591 Q600.079,880.507,603.794,880.507 L603.794,880.507 Z" id="def-9e8e4ce0-23d0-4581-88b3-32253bb859f6"></path><mask id="mask-c5d78c24-a59a-4ff0-8c42-dd1abdfdbb80" x="227.995" y="85.107" width="544.010" height="835.726" maskUnits="userSpaceOnUse" stroke-width="0"><rect x="252.723" y="109.835" width="494.555" height="786.271" fill="#000"></rect><use xlink:href="#def-0dc7eaf9-1a66-482b-a52a-44ae9b7d37d7" fill="#fff" stroke="#fff"></use><use xlink:href="#def-faed853b-cc84-4fdd-975e-b0ec9d8af4fc" fill="#fff" stroke="#fff"></use><use xlink:href="#def-9e8e4ce0-23d0-4581-88b3-32253bb859f6" fill="#fff" stroke="#fff"></use></mask></defs><rect id="background-shape-43e5a2cd-577c-46e7-92fd-32eab9d54a1a" x="-273.063" y="0.000" width="1546.125" height="1000.000" fill="url(#gradient-71171b96-d38a-4ea6-8e0e-87d92389f13c)"></rect><g mask="url(#mask-c5d78c24-a59a-4ff0-8c42-dd1abdfdbb80)"><rect x="252.723" y="109.835" width="494.555" height="786.271" fill="#0d1324"></rect></g><g opacity="0"><rect fill="none" stroke="#fff" stroke-dasharray="11.07010739856802" stroke-dashoffset="0" stroke-width="1.8450178997613365"></rect><rect fill="none" stroke="#000" stroke-dasharray="11.07010739856802" stroke-dashoffset="11.07010739856802" stroke-width="1.8450178997613365"></rect></g><g opacity="1"><rect fill="none" stroke="#fff" stroke-dasharray="5.53505369928401" stroke-dashoffset="0" stroke-width="1.8450178997613365" x="-263.063" y="10" width="1526.125" height="980"></rect><rect fill="none" stroke="#000" stroke-dasharray="5.53505369928401" stroke-dashoffset="5.53505369928401" stroke-width="1.8450178997613365" x="-263.063" y="10" width="1526.125" height="980"></rect></g></svg>