<svg version="1.1" preserveAspectRatio="xMidYMid meet" xmlns="http://www.w3.org/2000/svg" xmlns:xlink="http://www.w3.org/1999/xlink" viewBox="-273.063 0.000 1546.125 1000.000" style="cursor: pointer;"><defs><radialGradient id="gradient-3fcc8e7e-a7ed-4fef-9834-94295f710c26" gradientUnits="objectBoundingBox" gradientTransform="translate(0.5, 0.5) scale(1, 1.546) translate(-0.5, -0.5)" cx="0.875" cy="0.125" r="1.030"><stop offset="0.000" stop-color="#ffffcc" stop-opacity="1"></stop><stop offset="0.500" stop-color="#dcd696" stop-opacity="1"></stop><stop offset="1.000" stop-color="#aeaf63" stop-opacity="1"></stop></radialGradient><g transform="matrix(3.660, 0.000, 0.000, 3.660, 340.140, 207.506)" fill="#fff" stroke="none" stroke-width="1" id="def-7b319962-f94a-4b81-af12-c5b03bd9dfbe"><g transform="translate(-6.321999051750026, -6.771979295231262)"><path fill="#fff" d=" M46.286,90.443 c-0.098,0.139 -0.214,0.26 -0.322,0.386 C46.072,90.703,46.188,90.582,46.286,90.443 z"></path><path fill="#fff" d=" M47.174,87.539 c0,0.989 -0.297,1.904 -0.773,2.691 C46.886,89.443,47.174,88.528,47.174,87.539 z"></path><path fill="#fff" d=" M45.643,91.213 L45.643,91.213 c-0.11,0.111 -0.242,0.203 -0.366,0.305 C45.401,91.416,45.533,91.324,45.643,91.213 z"></path><path fill="#fff" d=" M44.877,91.845 c-0.068,0.048 -0.15,0.078 -0.224,0.122 C44.727,91.923,44.801,91.893,44.877,91.845 z"></path><path fill="#fff" d=" M43.997,92.322 c-0.031,0.009 -0.059,0.014 -0.079,0.023 C43.938,92.336,43.971,92.332,43.997,92.322 z"></path><g><path d=" M22.776,72.966 c-0.701 -8.825 -0.736 -21.478 -0.736 -21.478 l-9.576,0.048 c0,0 -0.147,17.854 -0.357,19.906 c-0.223,2.06 -1.239,13.051 -1.961,14.111 l14.496 -0.044 C24.642,85.512,23.462,81.793,22.776,72.966 z"></path><path d=" M13.967,49.418 c0.089,0.469,0.009,1.591,0.015,1.564 l6.69 -0.021 c-0.078 -0.536 -0.026 -1.232,0.003 -1.566 L13.967,49.418 z"></path><polygon points="21.482,40.233 13.249,40.256 12.705,48.883 22.07,48.866  "></polygon></g><g><path d=" M91.137,66.407 c-1.411 -1.81 -9.932 -12.714 -16.358 -20.385 l12.063,6.394 l0.628 -1.186 l-15.043 -7.972 c-0.362 -0.415 -0.706 -0.813 -1.033 -1.19 l18.149,6.001 l0.581 -1.75 L73.16,40.713 l18.319,2.952 l0.364 -2.246 l-19.988 -3.217 h19.624 v-2.878 H64.469 c-0.813 -1.103 -2.117 -1.822 -3.597 -1.822 c-2.459,0 -4.458,2 -4.458,4.465 c0,0.579,0.111,1.129,0.313,1.638 l-0.082 -0.033 c0,0,6.814,12.296,9.324,15.664 c0.718,0.973,3.802,5.02,6.921,9.127 l-12.084 -4.722 l-1.454,3.724 l17.817,6.962 l-19.415 -0.585 l-0.157,5.168 l26.39,0.791 c0.942,0.65,2.089,1.033,3.318,1.033 c3.248,0,5.873 -2.629,5.873 -5.873 C93.179,69.08,92.389,67.485,91.137,66.407 z M60.872,40.316 c-1.295,0 -2.341 -1.053 -2.341 -2.349 c0 -1.297,1.046 -2.35,2.341 -2.35 c1.303,0,2.355,1.053,2.355,2.35 C63.228,39.264,62.175,40.316,60.872,40.316 z M87.306,74.15 c-1.81,0 -3.286 -1.475 -3.286 -3.289 c0 -1.82,1.477 -3.291,3.286 -3.291 c1.818,0,3.289,1.471,3.289,3.291 C90.595,72.676,89.124,74.15,87.306,74.15 z"></path><path d=" M60.872,36.167 c-0.991,0 -1.798,0.803 -1.798,1.8 c0,0.995,0.807,1.802,1.798,1.802 c0.999,0,1.808 -0.807,1.808 -1.802 C62.68,36.971,61.871,36.167,60.872,36.167 z"></path><path d=" M87.306,68.354 c-1.38,0 -2.505,1.122 -2.505,2.507 c0,1.383,1.125,2.504,2.505,2.504 c1.389,0,2.507 -1.121,2.507 -2.504 C89.812,69.477,88.694,68.354,87.306,68.354 z"></path></g><path d=" M44.468,22.753 l3.381 -3.828 L45.014,7.684 l-5.723 -0.012 l-2.876,11.23 l3.358,3.844 l-0.095,39.986 l-2.858,4.995 l-0.043,19.791 c-0.008,2.868,2.312,5.202,5.19,5.21 c0.693,0.002,1.346 -0.141,1.949 -0.383 c0.021 -0.01,0.048 -0.015,0.079 -0.023 c0.227 -0.096,0.438 -0.227,0.657 -0.355 c0.073 -0.046,0.155 -0.074,0.224 -0.122 c0.144 -0.095,0.268 -0.218,0.399 -0.327 c0.124 -0.102,0.256 -0.193,0.366 -0.307 c0.121 -0.115,0.215 -0.253,0.32 -0.382 c0.108 -0.126,0.225 -0.247,0.322 -0.386 c0.049 -0.067,0.073 -0.146,0.115 -0.213 c0.485 -0.787,0.773 -1.703,0.776 -2.691 l0.049 -19.791 l-2.861 -5.006 L44.468,22.753 z M39.109,86.543 c0,0.241 -0.196,0.438 -0.438,0.438 s-0.438 -0.196 -0.438 -0.438 V67.668 h0.875 V86.543 z M42.132,88.596 c-0.421,0 -0.763 -0.342 -0.763 -0.764 V67.668 h1.521 v20.141 c0,0.008,0.005,0.016,0.005,0.023 C42.896,88.254,42.554,88.596,42.132,88.596 z M45.156,67.668 h0.875 v18.875 c0,0.241 -0.196,0.438 -0.438,0.438 s-0.438 -0.196 -0.438 -0.438 V67.668 z"></path><path d=" M26.982,27.779 l1.433 -2.455 l-1.396 -2.463 l-0.026 -0.001 l0.009 -2.87 l-2.432 -1.393 l0,0 l-1.438 -2.463 l-2.809,0.001 v-0.001 l-2.458 -1.41 l-2.467,1.394 l0,0.025 l-2.8 -0.002 l-1.464,2.425 l0,0.025 L8.67,20.003 l0.02,2.815 H8.662 l-1.396,2.493 l1.387,2.425 l0.026,0.027 l0.007,2.826 l2.416,1.412 h0 l1.438,2.463 l2.815 -0.02 v0.002 l2.48,1.432 l2.438 -1.397 l0.027 -0.025 l2.845,0.008 l1.393 -2.432 v0 L27,30.594 l-0.02 -2.815 H26.982 z M23.825,28.727 L23.825,28.727 l-0.504,1.986 l-1.999,0.562 l-1.428,1.457 l-2.003 -0.529 l-0.024,0.013 l-1.974,0.536 l-1.484 -1.463 v-0.002 l-1.987 -0.503 l-0.561 -2 l-1.442 -1.439 l0.514 -1.992 l-0.013 -0.024 l-0.532 -1.963 l1.441 -1.5 l0.02,0.005 l0.504 -1.988 l1.995 -0.542 l0.005 -0.018 l1.477 -1.44 l1.973,0.516 l0.005 -0.019 l1.994 -0.528 l1.472,1.444 v0.001 l1.979,0.515 l0.562,2 l-0.001,0.001 l1.458,1.428 l-0.533,2.02 l0.019,0.006 l0.53,1.993 L23.825,28.727 z"></path></g></g><path d="M178.292,718.020 Q154.395,718.020,140.979,705.442 Q127.563,692.865,127.563,665.195 L127.563,665.195 Q127.563,638.433,141.189,625.262 Q154.814,612.091,179.480,612.091 L179.480,612.091 Q186.607,612.091,192.826,612.964 Q199.045,613.837,205.543,615.654 L205.543,615.654 L205.543,623.410 Q192.686,619.777,179.689,619.777 L179.689,619.777 Q158.727,619.777,147.792,630.607 Q136.857,641.438,136.857,664.915 L136.857,664.915 Q136.857,689.231,147.652,699.782 Q158.448,710.333,178.711,710.333 L178.711,710.333 Q185.768,710.333,192.057,709.320 Q198.346,708.307,205.543,705.861 L205.543,705.861 L205.543,713.687 Q193.245,718.020,178.292,718.020 L178.292,718.020 Z M280.029,718.020 Q265.565,718.020,254.944,712.290 Q244.323,706.560,238.454,694.717 Q232.584,682.873,232.584,665.055 L232.584,665.055 Q232.584,647.237,238.523,635.394 Q244.463,623.550,255.118,617.820 Q265.774,612.091,280.029,612.091 L280.029,612.091 Q294.423,612.091,305.043,617.820 Q315.664,623.550,321.534,635.394 Q327.403,647.237,327.403,665.055 L327.403,665.055 Q327.403,682.873,321.464,694.717 Q315.525,706.560,304.904,712.290 Q294.283,718.020,280.029,718.020 L280.029,718.020 Z M280.029,710.333 Q297.986,710.333,308.153,699.398 Q318.320,688.463,318.320,665.404 L318.320,665.404 Q318.320,641.857,308.153,630.817 Q297.986,619.777,280.029,619.777 L280.029,619.777 Q262.071,619.777,251.904,630.677 Q241.738,641.577,241.738,664.706 L241.738,664.706 Q241.738,688.323,251.869,699.328 Q262.001,710.333,280.029,710.333 L280.029,710.333 Z M417.401,694.402 L459.325,613.348 L469.527,613.348 L469.527,716.762 L461.142,716.762 L461.142,626.624 L421.454,702.577 L412.999,702.577 L373.310,627.113 L373.310,716.762 L364.995,716.762 L364.995,613.348 L375.127,613.348 L417.401,694.402 Z M564.975,694.402 L606.899,613.348 L617.101,613.348 L617.101,716.762 L608.716,716.762 L608.716,626.624 L569.028,702.577 L560.573,702.577 L520.884,627.113 L520.884,716.762 L512.569,716.762 L512.569,613.348 L522.701,613.348 L564.975,694.402 Z M702.138,718.020 Q687.674,718.020,677.053,712.290 Q666.432,706.560,660.563,694.717 Q654.693,682.873,654.693,665.055 L654.693,665.055 Q654.693,647.237,660.632,635.394 Q666.572,623.550,677.228,617.820 Q687.883,612.091,702.138,612.091 L702.138,612.091 Q716.532,612.091,727.153,617.820 Q737.773,623.550,743.643,635.394 Q749.512,647.237,749.512,665.055 L749.512,665.055 Q749.512,682.873,743.573,694.717 Q737.634,706.560,727.013,712.290 Q716.392,718.020,702.138,718.020 L702.138,718.020 Z M702.138,710.333 Q720.095,710.333,730.262,699.398 Q740.429,688.463,740.429,665.404 L740.429,665.404 Q740.429,641.857,730.262,630.817 Q720.095,619.777,702.138,619.777 L702.138,619.777 Q684.180,619.777,674.013,630.677 Q663.847,641.577,663.847,664.706 L663.847,664.706 Q663.847,688.323,673.978,699.328 Q684.110,710.333,702.138,710.333 L702.138,710.333 Z M864.106,704.394 L864.106,613.348 L872.491,613.348 L872.491,716.762 L863.337,716.762 L795.210,625.716 L795.210,716.762 L786.825,716.762 L786.825,613.348 L795.978,613.348 L864.106,704.394 Z" id="def-ec4d08ea-76e4-4881-bdb4-071fe46c2722"></path><path d="M429.503,776.788 L439.342,750.599 L449.515,750.599 L449.515,791.965 L441.801,791.965 L441.801,762.366 L432.662,785.983 L426.038,785.983 L416.898,763.037 L416.898,791.965 L409.184,791.965 L409.184,750.599 L419.358,750.599 L429.503,776.788 Z M467.291,774.384 L467.291,784.838 L484.648,784.838 L484.648,791.965 L459.130,791.965 L459.130,750.599 L484.369,750.599 L484.369,757.726 L467.291,757.726 L467.291,767.257 L481.574,767.257 L481.574,774.384 L467.291,774.384 Z M517.796,755.267 L501.250,784.614 L518.076,784.614 L518.076,791.965 L490.517,791.965 L490.517,787.297 L507.064,757.950 L490.797,757.950 L490.797,750.599 L517.796,750.599 L517.796,755.267 Z M550.889,755.267 L534.342,784.614 L551.168,784.614 L551.168,791.965 L523.610,791.965 L523.610,787.297 L540.156,757.950 L523.889,757.950 L523.889,750.599 L550.889,750.599 L550.889,755.267 Z M574.171,792.496 Q566.345,792.496,561.915,787.353 Q557.485,782.210,557.485,771.282 L557.485,771.282 Q557.485,760.354,561.915,755.211 Q566.345,750.068,574.171,750.068 L574.171,750.068 Q581.997,750.068,586.413,755.211 Q590.829,760.354,590.829,771.282 L590.829,771.282 Q590.829,782.210,586.413,787.353 Q581.997,792.496,574.171,792.496 L574.171,792.496 Z M574.171,785.592 Q576.798,785.592,578.587,784.237 Q580.375,782.881,581.340,779.765 Q582.304,776.648,582.304,771.478 L582.304,771.478 Q582.304,766.111,581.354,762.911 Q580.403,759.711,578.615,758.341 Q576.826,756.972,574.171,756.972 L574.171,756.972 Q571.515,756.972,569.727,758.327 Q567.938,759.683,566.988,762.799 Q566.037,765.916,566.037,771.086 L566.037,771.086 Q566.037,776.453,566.988,779.653 Q567.938,782.853,569.727,784.223 Q571.515,785.592,574.171,785.592 L574.171,785.592 Z" id="def-98ab731b-6455-450d-bae7-ee899aec16b0"></path><mask id="mask-8b10feba-cb0f-40ea-8d29-178d742503c8" x="87.455" y="178.045" width="825.090" height="648.155" maskUnits="userSpaceOnUse" stroke-width="0"><rect x="116.917" y="207.506" width="766.167" height="589.232" fill="#000"></rect><use xlink:href="#def-7b319962-f94a-4b81-af12-c5b03bd9dfbe" fill="#fff" stroke="#fff"></use><use xlink:href="#def-ec4d08ea-76e4-4881-bdb4-071fe46c2722" fill="#fff" stroke="#fff"></use><use xlink:href="#def-98ab731b-6455-450d-bae7-ee899aec16b0" fill="#fff" stroke="#fff"></use></mask></defs><rect id="background-shape-5190b6d9-86ff-428c-9f2c-d99485f9d13a" x="-273.063" y="0.000" width="1546.125" height="1000.000" fill="url(#gradient-3fcc8e7e-a7ed-4fef-9834-94295f710c26)"></rect><g mask="url(#mask-8b10feba-cb0f-40ea-8d29-178d742503c8)"><rect x="116.917" y="207.506" width="766.167" height="589.232" fill="#0d1324"></rect></g><g opacity="0"><rect fill="none" stroke="#fff" stroke-dasharray="11.07010739856802" stroke-dashoffset="0" stroke-width="1.8450178997613365"></rect><rect fill="none" stroke="#000" stroke-dasharray="11.07010739856802" stroke-dashoffset="11.07010739856802" stroke-width="1.8450178997613365"></rect></g><g opacity="1"><rect fill="none" stroke="#fff" stroke-dasharray="5.53505369928401" stroke-dashoffset="0" stroke-width="1.8450178997613365" x="-263.063" y="10" width="1526.125" height="980"></rect><rect fill="none" stroke="#000" stroke-dasharray="5.53505369928401" stroke-dashoffset="5.53505369928401" stroke-width="1.8450178997613365" x="-263.063" y="10" width="1526.125" height="980"></rect></g></svg>