<svg version="1.1" preserveAspectRatio="xMidYMid meet" xmlns="http://www.w3.org/2000/svg" xmlns:xlink="http://www.w3.org/1999/xlink" viewBox="-273.063 0.000 1546.125 1000.000" style="cursor: pointer;"><defs><radialGradient id="gradient-ca4382f1-7574-4fc4-b418-4b8fda8662ed" gradientUnits="objectBoundingBox" gradientTransform="translate(0.5, 0.5) scale(1, 1.546) translate(-0.5, -0.5)" cx="0.875" cy="0.125" r="1.030"><stop offset="0.000" stop-color="#76c3ff" stop-opacity="1"></stop><stop offset="0.500" stop-color="#149aeb" stop-opacity="1"></stop><stop offset="1.000" stop-color="#0073cc" stop-opacity="1"></stop></radialGradient><g transform="matrix(7.019, 0.000, 0.000, 7.019, 328.024, 259.006)" fill="#fff" stroke="none" stroke-width="1" id="def-05bc21aa-7275-4f48-a84d-dd8ff68114e7"><g transform="translate(0.5, -6.5)"><path d=" M40,23.056 V23 c0 -8.822 -6.729 -16 -15 -16 c-6.409,0 -13.302,3.811 -13.95,10.037 C4.876,17.523,0,22.703,0,29 c0,6.617,5.383,12,12,12 h27 c4.962,0,9 -4.037,9 -9 C48,27.375,44.494,23.555,40,23.056 z M15,35 c-3.309,0 -6 -2.691 -6 -6 s2.691 -6,6 -6 h9.586 l-1.293 -1.293 c-0.391 -0.391 -0.391 -1.023,0 -1.414 s1.023 -0.391,1.414,0 l3,3 c0.391,0.391,0.391,1.023,0,1.414 l-3,3 C24.512,27.902,24.256,28,24,28 s-0.512 -0.098 -0.707 -0.293 c-0.391 -0.391 -0.391 -1.023,0 -1.414 L24.586,25 H15 c-2.206,0 -4,1.794 -4,4 s1.794,4,4,4 c0.552,0,1,0.447,1,1 S15.552,35,15,35 z M31,35 h-9.586 l1.293,1.293 c0.391,0.391,0.391,1.023,0,1.414 C22.512,37.902,22.256,38,22,38 s-0.512 -0.098 -0.707 -0.293 l-3 -3 c-0.391 -0.391 -0.391 -1.023,0 -1.414 l3 -3 c0.391 -0.391,1.023 -0.391,1.414,0 s0.391,1.023,0,1.414 L21.414,33 H31 c2.206,0,4 -1.794,4 -4 s-1.794 -4 -4 -4 c-0.553,0 -1 -0.447 -1 -1 s0.447 -1,1 -1 c3.309,0,6,2.691,6,6 S34.309,35,31,35 z"></path></g></g><path d="M126.065,672.931 Q104.224,672.931,91.963,661.436 Q79.702,649.941,79.702,624.652 L79.702,624.652 Q79.702,600.194,92.155,588.156 Q104.608,576.119,127.150,576.119 L127.150,576.119 Q133.664,576.119,139.347,576.917 Q145.031,577.715,150.970,579.376 L150.970,579.376 L150.970,586.464 Q139.220,583.143,127.342,583.143 L127.342,583.143 Q108.184,583.143,98.190,593.042 Q88.195,602.940,88.195,624.397 L88.195,624.397 Q88.195,646.620,98.062,656.263 Q107.928,665.906,126.448,665.906 L126.448,665.906 Q132.898,665.906,138.645,664.980 Q144.392,664.054,150.970,661.819 L150.970,661.819 L150.970,668.971 Q139.731,672.931,126.065,672.931 L126.065,672.931 Z M219.045,672.931 Q205.826,672.931,196.119,667.694 Q186.412,662.458,181.048,651.633 Q175.684,640.809,175.684,624.525 L175.684,624.525 Q175.684,608.240,181.112,597.416 Q186.540,586.592,196.279,581.355 Q206.017,576.119,219.045,576.119 L219.045,576.119 Q232.200,576.119,241.907,581.355 Q251.614,586.592,256.978,597.416 Q262.342,608.240,262.342,624.525 L262.342,624.525 Q262.342,640.809,256.914,651.633 Q251.486,662.458,241.779,667.694 Q232.072,672.931,219.045,672.931 L219.045,672.931 Z M219.045,665.906 Q235.457,665.906,244.749,655.912 Q254.040,645.918,254.040,624.844 L254.040,624.844 Q254.040,603.323,244.749,593.233 Q235.457,583.143,219.045,583.143 L219.045,583.143 Q202.633,583.143,193.341,593.106 Q184.049,603.068,184.049,624.205 L184.049,624.205 Q184.049,645.790,193.309,655.848 Q202.569,665.906,219.045,665.906 L219.045,665.906 Z M367.073,660.478 L367.073,577.268 L374.736,577.268 L374.736,671.781 L366.370,671.781 L304.107,588.571 L304.107,671.781 L296.443,671.781 L296.443,577.268 L304.809,577.268 L367.073,660.478 Z M434.190,672.931 Q427.612,672.931,420.875,671.877 Q414.138,670.823,408.071,668.780 L408.071,668.780 L408.071,661.755 Q414.585,663.926,421.354,664.980 Q428.123,666.034,434.317,666.034 L434.317,666.034 Q461.905,666.034,461.905,646.876 L461.905,646.876 Q461.905,641.575,459.606,638.095 Q457.307,634.615,452.390,632.380 Q447.472,630.144,439.171,628.484 L439.171,628.484 L433.934,627.462 Q419.821,624.780,413.275,618.586 Q406.730,612.391,406.730,602.046 L406.730,602.046 Q406.730,594.000,410.689,588.188 Q414.648,582.377,422.535,579.248 Q430.422,576.119,442.044,576.119 L442.044,576.119 Q455.008,576.119,465.928,579.503 L465.928,579.503 L465.928,586.528 Q454.433,583.016,441.981,583.016 L441.981,583.016 Q428.378,583.016,421.609,587.805 Q414.840,592.595,414.840,601.663 L414.840,601.663 Q414.840,606.963,416.883,610.476 Q418.927,613.988,423.461,616.287 Q427.995,618.586,435.786,620.118 L435.786,620.118 L441.086,621.140 Q451.432,623.184,457.818,626.536 Q464.204,629.889,467.141,634.774 Q470.079,639.660,470.079,646.493 L470.079,646.493 Q470.079,654.922,465.864,660.861 Q461.649,666.800,453.603,669.865 Q445.557,672.931,434.190,672.931 L434.190,672.931 Z M539.431,672.931 Q526.467,672.931,518.102,668.844 Q509.736,664.757,505.649,656.295 Q501.562,647.834,501.562,634.487 L501.562,634.487 L501.562,577.268 L509.608,577.268 L509.608,635.381 Q509.608,646.109,512.833,652.815 Q516.058,659.520,522.604,662.713 Q529.150,665.906,539.431,665.906 L539.431,665.906 Q549.713,665.906,556.290,662.713 Q562.868,659.520,566.093,652.815 Q569.318,646.109,569.318,635.381 L569.318,635.381 L569.318,577.268 L577.172,577.268 L577.172,634.487 Q577.172,647.834,573.117,656.295 Q569.062,664.757,560.728,668.844 Q552.395,672.931,539.431,672.931 L539.431,672.931 Z M663.639,651.346 L701.955,577.268 L711.279,577.268 L711.279,671.781 L703.615,671.781 L703.615,589.402 L667.343,658.818 L659.616,658.818 L623.343,589.849 L623.343,671.781 L615.744,671.781 L615.744,577.268 L625.004,577.268 L663.639,651.346 Z M758.344,626.632 L758.344,665.012 L814.540,665.012 L814.540,671.781 L750.361,671.781 L750.361,577.268 L813.902,577.268 L813.902,584.037 L758.344,584.037 L758.344,619.863 L807.516,619.863 L807.516,626.632 L758.344,626.632 Z M920.357,671.781 L910.905,671.781 L877.570,631.549 Q874.122,631.677,872.206,631.677 L872.206,631.677 Q867.736,631.677,864.000,631.485 Q860.264,631.294,854.964,630.911 L854.964,630.911 L854.964,671.781 L847.045,671.781 L847.045,579.120 Q853.559,577.779,860.105,577.045 Q866.650,576.310,874.441,576.310 L874.441,576.310 Q887.916,576.310,896.505,579.152 Q905.094,581.994,909.309,588.029 Q913.524,594.063,913.524,603.770 L913.524,603.770 Q913.524,626.504,886.192,630.719 L886.192,630.719 L920.357,671.781 Z M854.964,624.269 Q860.200,624.716,863.681,624.908 Q867.161,625.099,872.525,625.099 L872.525,625.099 Q884.276,625.099,891.620,622.769 Q898.964,620.438,902.380,615.776 Q905.797,611.114,905.797,603.962 L905.797,603.962 Q905.797,596.107,902.604,591.509 Q899.411,586.911,892.641,584.900 Q885.872,582.888,874.697,582.888 L874.697,582.888 Q868.758,582.888,864.383,583.303 Q860.009,583.718,854.964,584.612 L854.964,584.612 L854.964,624.269 Z" id="def-01ba5771-46fb-4618-820d-3187b60038f6"></path><path d="M435.571,726.640 L444.562,702.705 L453.860,702.705 L453.860,740.510 L446.810,740.510 L446.810,713.459 L438.457,735.044 L432.403,735.044 L424.051,714.072 L424.051,740.510 L417.000,740.510 L417.000,702.705 L426.298,702.705 L435.571,726.640 Z M470.106,724.443 L470.106,733.996 L485.969,733.996 L485.969,740.510 L462.648,740.510 L462.648,702.705 L485.714,702.705 L485.714,709.219 L470.106,709.219 L470.106,717.929 L483.159,717.929 L483.159,724.443 L470.106,724.443 Z M516.265,706.971 L501.142,733.792 L516.520,733.792 L516.520,740.510 L491.334,740.510 L491.334,736.244 L506.456,709.423 L491.589,709.423 L491.589,702.705 L516.265,702.705 L516.265,706.971 Z M546.509,706.971 L531.387,733.792 L546.764,733.792 L546.764,740.510 L521.578,740.510 L521.578,736.244 L536.700,709.423 L521.833,709.423 L521.833,702.705 L546.509,702.705 L546.509,706.971 Z M567.787,740.996 Q560.635,740.996,556.586,736.295 Q552.537,731.595,552.537,721.608 L552.537,721.608 Q552.537,711.620,556.586,706.920 Q560.635,702.220,567.787,702.220 L567.787,702.220 Q574.939,702.220,578.975,706.920 Q583.011,711.620,583.011,721.608 L583.011,721.608 Q583.011,731.595,578.975,736.295 Q574.939,740.996,567.787,740.996 L567.787,740.996 Z M567.787,734.686 Q570.188,734.686,571.823,733.447 Q573.458,732.208,574.339,729.360 Q575.220,726.512,575.220,721.786 L575.220,721.786 Q575.220,716.882,574.352,713.957 Q573.483,711.032,571.848,709.781 Q570.214,708.529,567.787,708.529 L567.787,708.529 Q565.360,708.529,563.725,709.768 Q562.091,711.007,561.222,713.855 Q560.354,716.703,560.354,721.429 L560.354,721.429 Q560.354,726.333,561.222,729.258 Q562.091,732.183,563.725,733.435 Q565.360,734.686,567.787,734.686 L567.787,734.686 Z" id="def-0da12652-95ee-4e1b-b38d-5e2a4a9f2639"></path><mask id="mask-18bfdf42-a5a1-4c83-bec0-e46d4cf2d03e" x="45.669" y="234.713" width="908.662" height="534.453" maskUnits="userSpaceOnUse" stroke-width="0"><rect x="69.962" y="259.006" width="860.076" height="485.867" fill="#000"></rect><use xlink:href="#def-05bc21aa-7275-4f48-a84d-dd8ff68114e7" fill="#fff" stroke="#fff"></use><use xlink:href="#def-01ba5771-46fb-4618-820d-3187b60038f6" fill="#fff" stroke="#fff"></use><use xlink:href="#def-0da12652-95ee-4e1b-b38d-5e2a4a9f2639" fill="#fff" stroke="#fff"></use></mask></defs><rect id="background-shape-bac151b9-fdba-494e-a92a-196c14a060c9" x="-273.063" y="0.000" width="1546.125" height="1000.000" fill="url(#gradient-ca4382f1-7574-4fc4-b418-4b8fda8662ed)"></rect><g mask="url(#mask-18bfdf42-a5a1-4c83-bec0-e46d4cf2d03e)"><rect x="69.962" y="259.006" width="860.076" height="485.867" fill="#0d1324"></rect></g><g opacity="0"><rect fill="none" stroke="#fff" stroke-dasharray="11.07010739856802" stroke-dashoffset="0" stroke-width="1.8450178997613365" x="-263.063" y="10" width="1526.125" height="980"></rect><rect fill="none" stroke="#000" stroke-dasharray="11.07010739856802" stroke-dashoffset="11.07010739856802" stroke-width="1.8450178997613365" x="-263.063" y="10" width="1526.125" height="980"></rect></g><g opacity="1"><rect fill="none" stroke="#fff" stroke-dasharray="5.53505369928401" stroke-dashoffset="0" stroke-width="1.8450178997613365" x="318.0239562988281" y="249.00634765625" width="363.9520778656006" height="265.68005561828613"></rect><rect fill="none" stroke="#000" stroke-dasharray="5.53505369928401" stroke-dashoffset="5.53505369928401" stroke-width="1.8450178997613365" x="318.0239562988281" y="249.00634765625" width="363.9520778656006" height="265.68005561828613"></rect></g></svg>