<svg version="1.1" preserveAspectRatio="xMidYMid meet" xmlns="http://www.w3.org/2000/svg" xmlns:xlink="http://www.w3.org/1999/xlink" viewBox="-273.063 0.000 1546.125 1000.000" style="cursor: pointer;"><defs><radialGradient id="gradient-3756d440-cf79-48d4-9b26-e02cb68cf96b" gradientUnits="objectBoundingBox" gradientTransform="translate(0.5, 0.5) scale(1, 1.546) translate(-0.5, -0.5)" cx="0.875" cy="0.125" r="1.030"><stop offset="0.000" stop-color="#b1fa40" stop-opacity="1"></stop><stop offset="0.167" stop-color="#94f43e" stop-opacity="1"></stop><stop offset="0.333" stop-color="#72eb3b" stop-opacity="1"></stop><stop offset="0.500" stop-color="#40e037" stop-opacity="1"></stop><stop offset="0.667" stop-color="#00d435" stop-opacity="1"></stop><stop offset="0.833" stop-color="#00cb39" stop-opacity="1"></stop><stop offset="1.000" stop-color="#00c340" stop-opacity="1"></stop></radialGradient><g transform="matrix(3.585, 0.000, 0.000, 3.585, 339.685, 215.023)" fill="#fff" stroke="none" stroke-width="1" id="def-a3ffd6ba-1b01-434f-bbf4-7294c56c676f"><g transform="translate(-5.277000000000001, -7.258000000000003)"><g></g><g><path d=" M84.935,19.158 H61.513 c-0.553,0 -1 -0.448 -1 -1 s0.447 -1,1 -1 h23.422 c0.553,0,1,0.448,1,1 S85.487,19.158,84.935,19.158 z"></path></g><g><path d=" M50.375,38.021 H34.621 c-1.654,0 -3 -1.346 -3 -3 V19.268 c0 -1.654,1.346 -3,3 -3 h15.754 c1.654,0,3,1.346,3,3 v15.753 C53.375,36.675,52.029,38.021,50.375,38.021 z M34.621,18.268 c-0.551,0 -1,0.449 -1,1 v15.753 c0,0.551,0.449,1,1,1 h15.754 c0.551,0,1 -0.449,1 -1 V19.268 c0 -0.551 -0.449 -1 -1 -1 H34.621 z"></path></g><g><path d=" M78.382,27.477 H61.513 c-0.553,0 -1 -0.448 -1 -1 s0.447 -1,1 -1 h16.869 c0.553,0,1,0.448,1,1 S78.935,27.477,78.382,27.477 z"></path></g><g><path d=" M69.531,37.131 h-8.019 c-0.553,0 -1 -0.448 -1 -1 s0.447 -1,1 -1 h8.019 c0.553,0,1,0.448,1,1 S70.084,37.131,69.531,37.131 z"></path></g><g><path d=" M66.821,48.421 h-34.2 c-0.552,0 -1 -0.448 -1 -1 s0.448 -1,1 -1 h34.2 c0.553,0,1,0.448,1,1 S67.374,48.421,66.821,48.421 z"></path></g><g><path d=" M61.882,57.332 H32.621 c-0.552,0 -1 -0.447 -1 -1 s0.448 -1,1 -1 h29.261 c0.553,0,1,0.447,1,1 S62.435,57.332,61.882,57.332 z"></path></g><g><path d=" M60.175,66.987 H32.621 c-0.552,0 -1 -0.447 -1 -1 s0.448 -1,1 -1 h27.554 c0.553,0,1,0.447,1,1 S60.728,66.987,60.175,66.987 z"></path></g><g><path d=" M56.044,75.75 H32.621 c-0.552,0 -1 -0.447 -1 -1 s0.448 -1,1 -1 h23.423 c0.553,0,1,0.447,1,1 S56.597,75.75,56.044,75.75 z"></path></g><path d=" M89.223,7.758 H28.22 c-2.757,0 -5,2.243 -5,5 v20.333 H10.777 c-2.757,0 -5,2.243 -5,5 v38.582 c0,0.166,0.05,0.315,0.122,0.453 c0.929,7.812,7.583,13.895,15.641,13.895 c0.095,0,0.181 -0.029,0.268 -0.054 c0.087,0.024,0.173,0.054,0.269,0.054 h0 l67.146 -0.035 c2.757 -0.001,5 -2.245,5 -5.002 V12.758 C94.223,10.001,91.979,7.758,89.223,7.758 z M92.223,85.983 c0,1.654 -1.346,3.001 -3.001,3.002 l-67.146,0.035 c-0.095,0 -0.181,0.029 -0.268,0.054 c-0.087 -0.024 -0.173 -0.054 -0.269 -0.054 c-7.588,0 -13.762 -6.175 -13.762 -13.765 V38.091 c0 -1.654,1.346 -3,3 -3 H23.22 v42.334 c0,0.553,0.448,1,1,1 s1 -0.447,1 -1 V12.758 c0 -1.654,1.346 -3,3 -3 h61.003 c1.654,0,3,1.346,3,3 V85.983 z"></path><path fill="#fff" stroke="#fff" stroke-width="2" stroke-linecap="round" stroke-miterlimit="10" d=" M16.498,72.146 "></path><path d=" M90.542,48.029 c-0.294 -1.944 -1.446 -3.7 -3.245 -4.946 c-0.048 -0.033 -0.103 -0.042 -0.154 -0.066 c0.098 -0.991 -0.48 -1.961 -1.459 -2.309 l-7.227 -2.564 c-1.117 -0.396 -2.427,0.227 -2.829,1.347 l-4.614,13.005 c-0.272,0.769 -0.085,1.584,0.407,2.167 c-0.478,0.434 -0.858,0.979 -1.084,1.614 l-2.279,6.426 c-0.356,1.003 -0.299,2.088,0.162,3.056 c0.038,0.08,0.093,0.148,0.136,0.226 c-0.101,0.079 -1.095,1.705 -1.021,2.659 l0.366,4.685 c0.141,1.809,1.157,2.453,2.062,2.453 c0.461,0,1.18 -0.173,1.977 -0.992 l3.318 -3.409 c0.774 -0.796,1.099 -1.769,0.909 -2.679 c1.056 -0.417,1.917 -1.263,2.311 -2.372 l2.28 -6.426 c0.226 -0.635,0.267 -1.3,0.163 -1.949 c0.768 -0.142,1.426 -0.657,1.696 -1.411 l0.215 -0.605 c0.048,0.322,0.124,0.638,0.249,0.927 c0.456,1.051,1.378,1.687,2.596,1.792 c0.029,0.003,0.059,0.004,0.087,0.004 c0.514,0,0.797 -0.396,0.995 -0.914 c0.062 -0.163,0.088 -0.367,0.021 -0.517 c-0.01 -0.39 -0.364 -0.718 -0.754 -0.856 c-0.277 -0.099 -0.565 -0.053 -0.803,0.084 c-0.159 -0.114 -0.25 -0.257 -0.308 -0.39 c-0.32 -0.736 -0.043 -1.846,0.149 -2.092 c0.127 -0.145,1.823 -0.688,2.152 -0.75 c1.073 -0.202,2.001 -0.377,2.706 -1.27 C90.454,51.024,90.768,49.521,90.542,48.029 z M73.625,69.984 l-3.318,3.409 c-0.229,0.235 -0.392,0.328 -0.478,0.364 c-0.043 -0.082 -0.108 -0.258 -0.134 -0.586 l-0.366 -4.685 c-0.03 -0.392,0.044 -0.707,0.21 -0.886 c0.059 -0.063,0.133 -0.11,0.219 -0.142 c0.229,0.139,0.474,0.257,0.731,0.349 l2.683,0.952 c0.252,0.09,0.512,0.145,0.773,0.182 c0.03,0.05,0.057,0.101,0.069,0.153 C74.073,69.346,73.931,69.67,73.625,69.984 z M78.674,59.234 l-2.28,6.426 c-0.257,0.723 -0.941,1.215 -1.682,1.304 c-0.232 -0.148 -0.488 -0.277 -0.771 -0.378 l-2.682 -0.952 c-0.284 -0.101 -0.567 -0.162 -0.845 -0.191 c-0.155 -0.158 -0.291 -0.338 -0.39 -0.545 c-0.231 -0.484 -0.261 -1.026 -0.083 -1.527 l2.279 -6.426 c0.209 -0.589,0.682 -1.032,1.257 -1.224 l4.98,1.768 C78.505,57.56,78.968,58.499,78.674,59.234 z M80.534,55.871 c-0.036,0.1 -0.133,0.145 -0.209,0.145 l-7.294 -2.575 c-0.109 -0.039 -0.171 -0.17 -0.133 -0.277 l4.613 -13.001 c0.032 -0.089,0.113 -0.135,0.233 -0.135 c0.014,0,0.028,0.001,0.044,0.002 l7.226,2.564 c0.113,0.04,0.173,0.165,0.134,0.276 L80.534,55.871 z M88.152,50.718 c-0.22,0.279 -0.548,0.361 -1.504,0.541 c-0.127,0.024 -0.268,0.052 -0.406,0.079 c-0.222,0.024 -0.5,0.083 -0.807,0.174 c-0.011,0.002 -0.021,0.004 -0.032,0.007 c-0.005,0.001 -0.008,0.005 -0.013,0.006 c-0.469,0.142 -0.981,0.351 -1.414,0.626 l2.537 -7.149 c1.43,1.13,1.912,2.415,2.051,3.326 C88.728,49.408,88.475,50.308,88.152,50.718 z"></path></g></g><path d="M167.128,711.585 Q143.578,711.585,130.357,699.190 Q117.136,686.796,117.136,659.528 L117.136,659.528 Q117.136,633.154,130.563,620.174 Q143.991,607.194,168.298,607.194 L168.298,607.194 Q175.322,607.194,181.450,608.055 Q187.579,608.916,193.983,610.706 L193.983,610.706 L193.983,618.350 Q181.313,614.769,168.505,614.769 L168.505,614.769 Q147.847,614.769,137.070,625.442 Q126.294,636.115,126.294,659.252 L126.294,659.252 Q126.294,683.215,136.933,693.613 Q147.571,704.011,167.541,704.011 L167.541,704.011 Q174.495,704.011,180.693,703.012 Q186.890,702.014,193.983,699.604 L193.983,699.604 L193.983,707.316 Q181.863,711.585,167.128,711.585 L167.128,711.585 Z M267.387,711.585 Q253.133,711.585,242.666,705.939 Q232.200,700.292,226.415,688.621 Q220.631,676.949,220.631,659.390 L220.631,659.390 Q220.631,641.831,226.484,630.159 Q232.337,618.487,242.838,612.841 Q253.339,607.194,267.387,607.194 L267.387,607.194 Q281.572,607.194,292.038,612.841 Q302.505,618.487,308.289,630.159 Q314.073,641.831,314.073,659.390 L314.073,659.390 Q314.073,676.949,308.220,688.621 Q302.367,700.292,291.901,705.939 Q281.434,711.585,267.387,711.585 L267.387,711.585 Z M267.387,704.011 Q285.083,704.011,295.102,693.234 Q305.122,682.458,305.122,659.734 L305.122,659.734 Q305.122,636.529,295.102,625.649 Q285.083,614.769,267.387,614.769 L267.387,614.769 Q249.690,614.769,239.671,625.511 Q229.652,636.253,229.652,659.046 L229.652,659.046 Q229.652,682.320,239.636,693.165 Q249.621,704.011,267.387,704.011 L267.387,704.011 Z M427.002,698.158 L427.002,608.434 L435.266,608.434 L435.266,710.346 L426.245,710.346 L359.107,620.622 L359.107,710.346 L350.844,710.346 L350.844,608.434 L359.865,608.434 L427.002,698.158 Z M511.630,710.346 L503.023,710.346 L503.023,615.940 L464.462,615.940 L464.462,608.434 L550.123,608.434 L550.123,615.940 L511.630,615.940 L511.630,710.346 Z M587.995,661.662 L587.995,703.047 L648.592,703.047 L648.592,710.346 L579.388,710.346 L579.388,608.434 L647.903,608.434 L647.903,615.733 L587.995,615.733 L587.995,654.363 L641.017,654.363 L641.017,661.662 L587.995,661.662 Z M759.799,698.158 L759.799,608.434 L768.062,608.434 L768.062,710.346 L759.042,710.346 L691.904,620.622 L691.904,710.346 L683.641,710.346 L683.641,608.434 L692.661,608.434 L759.799,698.158 Z M844.427,710.346 L835.820,710.346 L835.820,615.940 L797.259,615.940 L797.259,608.434 L882.920,608.434 L882.920,615.940 L844.427,615.940 L844.427,710.346 Z" id="def-14d66523-0381-4239-a3b9-3177f0727936"></path><path d="M430.527,769.500 L440.223,743.691 L450.249,743.691 L450.249,784.456 L442.646,784.456 L442.646,755.287 L433.640,778.562 L427.112,778.562 L418.105,755.948 L418.105,784.456 L410.503,784.456 L410.503,743.691 L420.529,743.691 L430.527,769.500 Z M467.766,767.131 L467.766,777.432 L484.871,777.432 L484.871,784.456 L459.724,784.456 L459.724,743.691 L484.596,743.691 L484.596,750.715 L467.766,750.715 L467.766,760.107 L481.841,760.107 L481.841,767.131 L467.766,767.131 Z M517.538,748.291 L501.232,777.212 L517.813,777.212 L517.813,784.456 L490.655,784.456 L490.655,779.856 L506.961,750.935 L490.931,750.935 L490.931,743.691 L517.538,743.691 L517.538,748.291 Z M550.150,748.291 L533.844,777.212 L550.425,777.212 L550.425,784.456 L523.267,784.456 L523.267,779.856 L539.573,750.935 L523.542,750.935 L523.542,743.691 L550.150,743.691 L550.150,748.291 Z M573.093,784.979 Q565.381,784.979,561.016,779.911 Q556.650,774.843,556.650,764.074 L556.650,764.074 Q556.650,753.304,561.016,748.236 Q565.381,743.168,573.093,743.168 L573.093,743.168 Q580.806,743.168,585.158,748.236 Q589.510,753.304,589.510,764.074 L589.510,764.074 Q589.510,774.843,585.158,779.911 Q580.806,784.979,573.093,784.979 L573.093,784.979 Z M573.093,778.176 Q575.683,778.176,577.445,776.840 Q579.208,775.504,580.158,772.433 Q581.109,769.362,581.109,764.266 L581.109,764.266 Q581.109,758.978,580.172,755.824 Q579.236,752.671,577.473,751.321 Q575.710,749.971,573.093,749.971 L573.093,749.971 Q570.477,749.971,568.714,751.307 Q566.951,752.643,566.015,755.714 Q565.078,758.785,565.078,763.881 L565.078,763.881 Q565.078,769.169,566.015,772.323 Q566.951,775.477,568.714,776.826 Q570.477,778.176,573.093,778.176 L573.093,778.176 Z" id="def-35b46f73-224e-4c71-a938-c582e2d9ccae"></path><mask id="mask-6710beb9-24a7-4464-a60f-477656e930a7" x="77.934" y="186.316" width="844.131" height="631.552" maskUnits="userSpaceOnUse" stroke-width="0"><rect x="106.641" y="215.023" width="786.718" height="574.138" fill="#000"></rect><use xlink:href="#def-a3ffd6ba-1b01-434f-bbf4-7294c56c676f" fill="#fff" stroke="#fff"></use><use xlink:href="#def-14d66523-0381-4239-a3b9-3177f0727936" fill="#fff" stroke="#fff"></use><use xlink:href="#def-35b46f73-224e-4c71-a938-c582e2d9ccae" fill="#fff" stroke="#fff"></use></mask></defs><rect id="background-shape-b8c70bbd-8af8-4f73-bf02-5f24b70a6fc8" x="-273.063" y="0.000" width="1546.125" height="1000.000" fill="url(#gradient-3756d440-cf79-48d4-9b26-e02cb68cf96b)"></rect><g mask="url(#mask-6710beb9-24a7-4464-a60f-477656e930a7)"><rect x="106.641" y="215.023" width="786.718" height="574.138" fill="#0d1324"></rect></g><g opacity="0"><rect fill="none" stroke="#fff" stroke-dasharray="11.07010739856802" stroke-dashoffset="0" stroke-width="1.8450178997613365"></rect><rect fill="none" stroke="#000" stroke-dasharray="11.07010739856802" stroke-dashoffset="11.07010739856802" stroke-width="1.8450178997613365"></rect></g><g opacity="1"><rect fill="none" stroke="#fff" stroke-dasharray="5.53505369928401" stroke-dashoffset="0" stroke-width="1.8450178997613365" x="-263.063" y="10" width="1526.125" height="980"></rect><rect fill="none" stroke="#000" stroke-dasharray="5.53505369928401" stroke-dashoffset="5.53505369928401" stroke-width="1.8450178997613365" x="-263.063" y="10" width="1526.125" height="980"></rect></g></svg>