<svg version="1.1" preserveAspectRatio="xMidYMid meet" xmlns="http://www.w3.org/2000/svg" xmlns:xlink="http://www.w3.org/1999/xlink" viewBox="-273.063 0.000 1546.125 1000.000" style="cursor: pointer;"><defs><radialGradient id="gradient-b7443289-e05c-4db7-9ef2-39a3bb29e5c1" gradientUnits="objectBoundingBox" gradientTransform="translate(0.5, 0.5) scale(1, 1.546) translate(-0.5, -0.5)" cx="0.875" cy="0.125" r="1.030"><stop offset="0.000" stop-color="#e1b668" stop-opacity="1"></stop><stop offset="0.250" stop-color="#d8a355" stop-opacity="1"></stop><stop offset="0.500" stop-color="#cb8c3f" stop-opacity="1"></stop><stop offset="0.750" stop-color="#be752a" stop-opacity="1"></stop><stop offset="1.000" stop-color="#b5621b" stop-opacity="1"></stop></radialGradient><g transform="matrix(3.447, 0.000, 0.000, 3.447, 347.299, 283.507)" fill="#fff" stroke="none" stroke-width="1" id="def-4a118b86-403c-4add-bb65-c6e2045cfbcf"><g transform="translate(-5.7034523762544325, -17.900000000000006)"><path d=" M39.29,81.6 a4.5,4.5,0,0,0,4.5 -4.5 v-9 a1.5,1.5,0,0,0 -3,0 v9 a1.5,1.5,0,0,1 -1.5,1.5 H12 a1.5,1.5,0,0,1 -1.5 -1.5 v-39 a1.5,1.5,0,0,1,1.5 -1.5 H30.54 v7.75 a2.5,2.5,0,0,0,2.5,2.5 h7.75 v9.25 a1.5,1.5,0,0,0,3,0 V45.33 a1.5,1.5,0,0,0,0 -0.28 h0 a1.48,1.48,0,0,0 -0.13 -0.37 l0 -0.08 a1.5,1.5,0,0,0 -0.24 -0.32 L33.1,34 a1.5,1.5,0,0,0 -0.32 -0.24 l-0.08,0 a1.48,1.48,0,0,0 -0.37 -0.13 h0 l-0.28,0 H12 a4.5,4.5,0,0,0 -4.5,4.5 v39 A4.5,4.5,0,0,0,12,81.6 Z M33.54,38.7 l5.13,5.13 H33.54 Z"></path><path d=" M93.76,45 a1.48,1.48,0,0,0 -0.13 -0.37 l0 -0.08 a1.5,1.5,0,0,0 -0.24 -0.32 L83.1,34 a1.5,1.5,0,0,0 -0.32 -0.24 l-0.08,0 a1.48,1.48,0,0,0 -0.37 -0.13 h0 l-0.28,0 H62 a4.5,4.5,0,0,0 -4.5,4.5 v18 a1.5,1.5,0,0,0,3,0 v-18 a1.5,1.5,0,0,1,1.5 -1.5 H80.54 v7.75 a2.5,2.5,0,0,0,2.5,2.5 h7.75 V77.1 a1.5,1.5,0,0,1 -1.5,1.5 H62 a1.5,1.5,0,0,1 -1.5 -1.5 v-9 a1.5,1.5,0,0,0 -3,0 v9 A4.5,4.5,0,0,0,62,81.6 H89.29 a4.5,4.5,0,0,0,4.5 -4.5 V45.33 a1.5,1.5,0,0,0,0 -0.28 Z M83.54,43.83 V38.7 l5.13,5.13 Z"></path><path d=" M24.15,62.08 a1.5,1.5,0,0,0,1.5,1.5 H72.25 L70.94,64.9 A1.5,1.5,0,1,0,73.06,67 l3.87 -3.87 a1.5,1.5,0,0,0,0 -2.12 l-3.87 -3.87 a1.5,1.5,0,1,0 -2.12,2.12 l1.31,1.31 H25.65 A1.5,1.5,0,0,0,24.15,62.08 Z"></path></g></g><path d="M107.977,655.622 Q88.444,655.622,77.478,645.341 Q66.513,635.061,66.513,612.444 L66.513,612.444 Q66.513,590.570,77.650,579.804 Q88.787,569.038,108.948,569.038 L108.948,569.038 Q114.773,569.038,119.856,569.752 Q124.939,570.466,130.251,571.951 L130.251,571.951 L130.251,578.291 Q119.742,575.321,109.119,575.321 L109.119,575.321 Q91.985,575.321,83.047,584.173 Q74.109,593.026,74.109,612.216 L74.109,612.216 Q74.109,632.091,82.933,640.715 Q91.757,649.339,108.319,649.339 L108.319,649.339 Q114.088,649.339,119.228,648.511 Q124.368,647.683,130.251,645.684 L130.251,645.684 L130.251,652.081 Q120.199,655.622,107.977,655.622 L107.977,655.622 Z M191.133,655.622 Q179.311,655.622,170.630,650.938 Q161.948,646.255,157.151,636.575 Q152.353,626.894,152.353,612.330 L152.353,612.330 Q152.353,597.766,157.208,588.086 Q162.063,578.405,170.772,573.722 Q179.482,569.038,191.133,569.038 L191.133,569.038 Q202.898,569.038,211.580,573.722 Q220.261,578.405,225.058,588.086 Q229.856,597.766,229.856,612.330 L229.856,612.330 Q229.856,626.894,225.001,636.575 Q220.147,646.255,211.465,650.938 Q202.784,655.622,191.133,655.622 L191.133,655.622 Z M191.133,649.339 Q205.811,649.339,214.121,640.401 Q222.431,631.463,222.431,612.616 L222.431,612.616 Q222.431,593.369,214.121,584.345 Q205.811,575.321,191.133,575.321 L191.133,575.321 Q176.455,575.321,168.145,584.230 Q159.835,593.140,159.835,612.044 L159.835,612.044 Q159.835,631.349,168.117,640.344 Q176.398,649.339,191.133,649.339 L191.133,649.339 Z M323.521,644.485 L323.521,570.066 L330.375,570.066 L330.375,654.594 L322.893,654.594 L267.208,580.175 L267.208,654.594 L260.354,654.594 L260.354,570.066 L267.836,570.066 L323.521,644.485 Z M394.912,648.939 L427.295,570.066 L434.606,570.066 L399.710,654.594 L389.544,654.594 L354.648,570.066 L362.472,570.066 L394.912,648.939 Z M466.075,614.215 L466.075,648.540 L516.334,648.540 L516.334,654.594 L458.936,654.594 L458.936,570.066 L515.763,570.066 L515.763,576.120 L466.075,576.120 L466.075,608.161 L510.052,608.161 L510.052,614.215 L466.075,614.215 Z M610.971,654.594 L602.518,654.594 L572.705,618.612 Q569.621,618.727,567.907,618.727 L567.907,618.727 Q563.910,618.727,560.568,618.555 Q557.227,618.384,552.487,618.041 L552.487,618.041 L552.487,654.594 L545.405,654.594 L545.405,571.723 Q551.230,570.523,557.085,569.867 Q562.939,569.210,569.906,569.210 L569.906,569.210 Q581.957,569.210,589.639,571.751 Q597.321,574.293,601.090,579.690 Q604.860,585.087,604.860,593.768 L604.860,593.768 Q604.860,614.101,580.415,617.870 L580.415,617.870 L610.971,654.594 Z M552.487,612.102 Q557.170,612.501,560.283,612.673 Q563.396,612.844,568.193,612.844 L568.193,612.844 Q578.702,612.844,585.270,610.759 Q591.838,608.675,594.893,604.506 Q597.949,600.336,597.949,593.940 L597.949,593.940 Q597.949,586.915,595.093,582.803 Q592.238,578.691,586.184,576.891 Q580.130,575.092,570.135,575.092 L570.135,575.092 Q564.823,575.092,560.911,575.464 Q556.999,575.835,552.487,576.634 L552.487,576.634 L552.487,612.102 Z M657.175,655.622 Q651.292,655.622,645.267,654.679 Q639.242,653.737,633.816,651.909 L633.816,651.909 L633.816,645.627 Q639.641,647.569,645.695,648.511 Q651.749,649.453,657.289,649.453 L657.289,649.453 Q681.962,649.453,681.962,632.320 L681.962,632.320 Q681.962,627.579,679.906,624.467 Q677.850,621.354,673.452,619.355 Q669.054,617.356,661.630,615.871 L661.630,615.871 L656.947,614.957 Q644.325,612.559,638.470,607.019 Q632.616,601.479,632.616,592.226 L632.616,592.226 Q632.616,585.030,636.157,579.833 Q639.698,574.635,646.752,571.837 Q653.805,569.038,664.200,569.038 L664.200,569.038 Q675.794,569.038,685.560,572.065 L685.560,572.065 L685.560,578.348 Q675.280,575.207,664.143,575.207 L664.143,575.207 Q651.978,575.207,645.924,579.490 Q639.870,583.774,639.870,591.884 L639.870,591.884 Q639.870,596.624,641.697,599.765 Q643.525,602.906,647.580,604.962 Q651.635,607.019,658.603,608.389 L658.603,608.389 L663.343,609.303 Q672.595,611.131,678.307,614.129 Q684.018,617.128,686.645,621.497 Q689.272,625.866,689.272,631.977 L689.272,631.977 Q689.272,639.516,685.503,644.827 Q681.734,650.139,674.537,652.880 Q667.341,655.622,657.175,655.622 L657.175,655.622 Z M725.082,654.594 L717.886,654.594 L717.886,570.066 L725.082,570.066 L725.082,654.594 Z M794.303,655.622 Q782.481,655.622,773.800,650.938 Q765.119,646.255,760.321,636.575 Q755.524,626.894,755.524,612.330 L755.524,612.330 Q755.524,597.766,760.378,588.086 Q765.233,578.405,773.943,573.722 Q782.652,569.038,794.303,569.038 L794.303,569.038 Q806.069,569.038,814.750,573.722 Q823.431,578.405,828.228,588.086 Q833.026,597.766,833.026,612.330 L833.026,612.330 Q833.026,626.894,828.171,636.575 Q823.317,646.255,814.635,650.938 Q805.954,655.622,794.303,655.622 L794.303,655.622 Z M794.303,649.339 Q808.981,649.339,817.291,640.401 Q825.601,631.463,825.601,612.616 L825.601,612.616 Q825.601,593.369,817.291,584.345 Q808.981,575.321,794.303,575.321 L794.303,575.321 Q779.625,575.321,771.315,584.230 Q763.005,593.140,763.005,612.044 L763.005,612.044 Q763.005,631.349,771.287,640.344 Q779.568,649.339,794.303,649.339 L794.303,649.339 Z M926.691,644.485 L926.691,570.066 L933.545,570.066 L933.545,654.594 L926.063,654.594 L870.378,580.175 L870.378,654.594 L863.524,654.594 L863.524,570.066 L871.006,570.066 L926.691,644.485 Z" id="def-47f668a3-bfc5-4159-8410-ad3c95c0196c"></path><path d="M442.378,703.655 L450.420,682.250 L458.735,682.250 L458.735,716.060 L452.430,716.060 L452.430,691.867 L444.960,711.172 L439.545,711.172 L432.075,692.416 L432.075,716.060 L425.770,716.060 L425.770,682.250 L434.085,682.250 L442.378,703.655 Z M473.265,701.691 L473.265,710.235 L487.452,710.235 L487.452,716.060 L466.594,716.060 L466.594,682.250 L487.223,682.250 L487.223,688.075 L473.265,688.075 L473.265,695.865 L484.939,695.865 L484.939,701.691 L473.265,701.691 Z M514.546,686.065 L501.022,710.052 L514.775,710.052 L514.775,716.060 L492.249,716.060 L492.249,712.245 L505.774,688.258 L492.478,688.258 L492.478,682.250 L514.546,682.250 L514.546,686.065 Z M541.595,686.065 L528.070,710.052 L541.823,710.052 L541.823,716.060 L519.298,716.060 L519.298,712.245 L532.822,688.258 L519.526,688.258 L519.526,682.250 L541.595,682.250 L541.595,686.065 Z M560.625,716.494 Q554.228,716.494,550.607,712.291 Q546.986,708.087,546.986,699.155 L546.986,699.155 Q546.986,690.222,550.607,686.019 Q554.228,681.815,560.625,681.815 L560.625,681.815 Q567.022,681.815,570.631,686.019 Q574.241,690.222,574.241,699.155 L574.241,699.155 Q574.241,708.087,570.631,712.291 Q567.022,716.494,560.625,716.494 L560.625,716.494 Z M560.625,710.852 Q562.772,710.852,564.234,709.744 Q565.696,708.636,566.485,706.088 Q567.273,703.541,567.273,699.315 L567.273,699.315 Q567.273,694.929,566.496,692.313 Q565.719,689.697,564.257,688.578 Q562.795,687.458,560.625,687.458 L560.625,687.458 Q558.455,687.458,556.992,688.566 Q555.530,689.674,554.754,692.221 Q553.977,694.769,553.977,698.995 L553.977,698.995 Q553.977,703.381,554.754,705.997 Q555.530,708.613,556.992,709.732 Q558.455,710.852,560.625,710.852 L560.625,710.852 Z" id="def-95357c4f-b215-40d7-9fbb-af7961e6553c"></path><mask id="mask-babba746-8f15-40a3-b2b7-40bd0696c9e2" x="35.974" y="261.684" width="928.051" height="480.101" maskUnits="userSpaceOnUse" stroke-width="0"><rect x="57.797" y="283.507" width="884.406" height="436.455" fill="#000"></rect><use xlink:href="#def-4a118b86-403c-4add-bb65-c6e2045cfbcf" fill="#fff" stroke="#fff"></use><use xlink:href="#def-47f668a3-bfc5-4159-8410-ad3c95c0196c" fill="#fff" stroke="#fff"></use><use xlink:href="#def-95357c4f-b215-40d7-9fbb-af7961e6553c" fill="#fff" stroke="#fff"></use></mask></defs><rect id="background-shape-3e0ba0f9-51b4-440a-ae81-8f26d0add553" x="-273.063" y="0.000" width="1546.125" height="1000.000" fill="url(#gradient-b7443289-e05c-4db7-9ef2-39a3bb29e5c1)"></rect><g mask="url(#mask-babba746-8f15-40a3-b2b7-40bd0696c9e2)"><rect x="57.797" y="283.507" width="884.406" height="436.455" fill="#0d1324"></rect></g><g opacity="0"><rect fill="none" stroke="#fff" stroke-dasharray="11.07010739856802" stroke-dashoffset="0" stroke-width="1.8450178997613365" x="-263.063" y="10" width="1526.125" height="980"></rect><rect fill="none" stroke="#000" stroke-dasharray="11.07010739856802" stroke-dashoffset="11.07010739856802" stroke-width="1.8450178997613365" x="-263.063" y="10" width="1526.125" height="980"></rect></g><g opacity="1"><rect fill="none" stroke="#fff" stroke-dasharray="5.53505369928401" stroke-dashoffset="0" stroke-width="1.8450178997613365" x="-263.063" y="10" width="1526.125" height="980"></rect><rect fill="none" stroke="#000" stroke-dasharray="5.53505369928401" stroke-dashoffset="5.53505369928401" stroke-width="1.8450178997613365" x="-263.063" y="10" width="1526.125" height="980"></rect></g></svg>