<svg version="1.1" preserveAspectRatio="xMidYMid meet" xmlns="http://www.w3.org/2000/svg" xmlns:xlink="http://www.w3.org/1999/xlink" viewBox="-273.063 0.000 1546.125 1000.000" style="cursor: pointer;"><defs><radialGradient id="gradient-f894b5d7-6212-4963-ae67-7d3db1b35059" gradientUnits="objectBoundingBox" gradientTransform="translate(0.5, 0.5) scale(1, 1.546) translate(-0.5, -0.5)" cx="0.875" cy="0.125" r="1.030"><stop offset="0.000" stop-color="#edfcfb" stop-opacity="1"></stop><stop offset="0.250" stop-color="#d4eceb" stop-opacity="1"></stop><stop offset="0.500" stop-color="#b6d9da" stop-opacity="1"></stop><stop offset="0.750" stop-color="#98c6ca" stop-opacity="1"></stop><stop offset="1.000" stop-color="#7eb6bd" stop-opacity="1"></stop></radialGradient><g transform="matrix(7.957, 0.000, 0.000, 7.957, 296.141, 300.052)" fill="#fff" stroke="none" stroke-width="1" id="def-581d6a65-7332-4395-95ed-d6ea97869e95"><g transform="translate(0.4200000000000017, -13.518)"><g><path d=" M47.562,21.853 c-0.059,0 -0.111,0.02 -0.167,0.026 v-0.042 h-6.134 c-0.358 -0.012 -1.106 -0.103 -1.614 -0.609 c-0.686 -0.686 -1.005 -1.603 -1.005 -1.603 l-0.002,0.011 c-1.205 -3.04 -3.324 -5.199 -5.794 -5.415 l0,0 H7.865 v0.033 c-0.028 -0.001 -0.053 -0.006 -0.081 -0.006 c-4.016,0 -7.64,4.955 -7.64,11.066 c0,6.115,3.624,11.068,7.64,11.068 c0.115,0,0.226 -0.017,0.338 -0.024 H32.09 c0.111,0.008,0.562,0.008,0.674,0 h0.083 V36.35 c2.277 -0.198,4.26 -1.997,5.498 -4.658 l0.007,0.024 c0,0,0.317 -0.918,1.005 -1.604 c0.685 -0.685,2.004 -0.685,2.004 -0.685 h6.035 v-0.027 c0.056,0.006,0.108,0.027,0.167,0.027 c1.374,0,2.757 -1.694,2.757 -3.788 C50.319,23.548,48.937,21.853,47.562,21.853 z M22.57,31.315 H11.953 c-0.799,0 -1.606 -0.355 -2.215 -0.974 c-0.786 -0.799 -1.207 -1.987 -1.185 -3.345 c0.036 -2.194,1.404 -3.851,3.181 -3.851 h10.232 c-0.716,0.741 -1.221,1.696 -1.375,2.793 C20.299,28.025,21.114,30.001,22.57,31.315 z M32.613,26.287 c-0.214,1.539 -1.019,2.907 -2.261,3.844 c-1.243,0.938 -2.779,1.335 -4.321,1.121 c-2.462 -0.347 -4.182 -2.627 -3.838 -5.088 c0.263 -1.879,2.015 -3.196,3.89 -2.931 c0.683,0.097,1.291,0.452,1.706,1.004 c0.417,0.554,0.595,1.236,0.497,1.924 c-0.069,0.496 -0.323,0.935 -0.716,1.241 c0.296 -0.275,0.487 -0.644,0.546 -1.068 c0.081 -0.582 -0.069 -1.161 -0.421 -1.63 c-0.354 -0.47 -0.868 -0.773 -1.451 -0.854 c-1.395 -0.189 -2.684,0.78 -2.881,2.171 c-0.228,1.626,0.912,3.138,2.542,3.366 c0.931,0.135,1.861 -0.107,2.615 -0.676 c0.753 -0.564,1.238 -1.394,1.367 -2.326 c0.157 -1.114 -0.129 -2.223 -0.807 -3.119 c-0.676 -0.899 -1.623 -1.438 -2.733 -1.593 c-0.39 -0.054 -0.81 -0.093 -1.184 -0.059 c-0.006,0 -5.92 -0.004 -5.92 -0.004 c-0.504 -0.474 -1.357 -1.219 -2.625 -2.139 c-0.253 -0.183 -0.672 -0.41 -1.085 -0.618 l10.703 -0.007 c2.071,0.29,3.841,1.159,4.986,2.447 C32.404,22.629,32.887,24.354,32.613,26.287 z M25.354,27.399 c-0.293 -0.292 -0.45 -0.716 -0.39 -1.152 c0.067 -0.468,0.468 -0.805,0.927 -0.805 c0.043,0,0.087,0.003,0.131,0.009 c0.153,0.02,0.289,0.102,0.38,0.226 c0.096,0.123,0.135,0.279,0.115,0.431 c-0.018,0.114 -0.201,0.168 -0.313,0.157 c-0.437 -0.065 -0.85,0.243 -0.912,0.688 C25.267,27.11,25.293,27.264,25.354,27.399 z M46.83,23.975 c-0.671,0.05 -1.208,0.796 -1.208,1.72 c0,0.925,0.537,1.672,1.208,1.72 v0.009 h-3.354 v-0.009 c-0.025,0.001 -0.048,0.009 -0.075,0.009 c-0.735,0 -1.33 -0.773 -1.33 -1.729 c0 -0.955,0.595 -1.729,1.33 -1.729 c0.027,0,0.05,0.008,0.075,0.009 v-0.017 h3.354 V23.975 z"></path></g></g></g><path d="M83.584,635.060 Q77.415,635.060,71.790,634.697 Q66.165,634.334,59.270,633.427 L59.270,633.427 L59.270,546.636 Q65.318,545.366,72.183,544.700 Q79.048,544.035,85.277,544.035 L85.277,544.035 Q109.289,544.035,121.597,555.466 Q133.905,566.897,133.905,589.638 L133.905,589.638 Q133.905,612.561,121.325,623.810 Q108.744,635.060,83.584,635.060 L83.584,635.060 Z M84.794,628.467 Q105.599,628.467,115.821,618.972 Q126.042,609.476,126.042,589.578 L126.042,589.578 Q126.042,569.800,115.821,560.214 Q105.599,550.627,85.096,550.627 L85.096,550.627 Q76.810,550.627,66.891,552.200 L66.891,552.200 L66.891,627.258 Q74.330,628.467,84.794,628.467 L84.794,628.467 Z M173.823,634.395 L166.202,634.395 L166.202,544.882 L173.823,544.882 L173.823,634.395 Z M230.071,635.483 Q223.841,635.483,217.460,634.485 Q211.080,633.487,205.334,631.552 L205.334,631.552 L205.334,624.899 Q211.503,626.955,217.914,627.953 Q224.325,628.951,230.192,628.951 L230.192,628.951 Q256.320,628.951,256.320,610.807 L256.320,610.807 Q256.320,605.787,254.143,602.491 Q251.965,599.194,247.308,597.077 Q242.651,594.961,234.788,593.388 L234.788,593.388 L229.829,592.420 Q216.462,589.880,210.263,584.013 Q204.064,578.147,204.064,568.349 L204.064,568.349 Q204.064,560.728,207.814,555.224 Q211.563,549.720,219.033,546.757 Q226.502,543.793,237.510,543.793 L237.510,543.793 Q249.788,543.793,260.130,546.999 L260.130,546.999 L260.130,553.652 Q249.244,550.325,237.450,550.325 L237.450,550.325 Q224.567,550.325,218.156,554.861 Q211.745,559.397,211.745,567.986 L211.745,567.986 Q211.745,573.006,213.680,576.332 Q215.616,579.659,219.910,581.836 Q224.204,584.013,231.583,585.465 L231.583,585.465 L236.603,586.433 Q246.401,588.368,252.449,591.543 Q258.497,594.719,261.279,599.345 Q264.062,603.972,264.062,610.444 L264.062,610.444 Q264.062,618.427,260.070,624.052 Q256.078,629.677,248.457,632.580 Q240.837,635.483,230.071,635.483 L230.071,635.483 Z M294.363,634.395 L294.363,546.515 Q300.955,545.184,306.852,544.579 Q312.749,543.974,319.463,543.974 L319.463,543.974 Q338.091,543.974,347.617,551.262 Q357.143,558.551,357.143,573.852 L357.143,573.852 Q357.143,588.791,347.436,596.473 Q337.728,604.154,317.165,604.154 L317.165,604.154 Q309.302,604.154,301.984,603.428 L301.984,603.428 L301.984,634.395 L294.363,634.395 Z M317.165,597.985 Q328.717,597.985,335.853,595.323 Q342.990,592.662,346.256,587.370 Q349.522,582.078,349.522,573.973 L349.522,573.973 Q349.522,561.696,342.174,555.950 Q334.825,550.204,319.886,550.204 L319.886,550.204 Q310.209,550.204,301.984,551.716 L301.984,551.716 L301.984,596.956 Q309.483,597.985,317.165,597.985 L317.165,597.985 Z M462.684,634.395 L454.821,634.395 L442.362,604.093 L398.271,604.093 L385.811,634.395 L378.009,634.395 L415.205,544.882 L425.548,544.882 L462.684,634.395 Z M420.286,550.567 L400.932,597.682 L439.701,597.682 L420.286,550.567 Z M520.081,634.395 L512.521,634.395 L512.521,551.474 L478.651,551.474 L478.651,544.882 L553.890,544.882 L553.890,551.474 L520.081,551.474 L520.081,634.395 Z M619.029,635.483 Q598.344,635.483,586.732,624.597 Q575.119,613.710,575.119,589.759 L575.119,589.759 Q575.119,566.595,586.913,555.194 Q598.707,543.793,620.057,543.793 L620.057,543.793 Q626.226,543.793,631.609,544.549 Q636.992,545.305,642.617,546.878 L642.617,546.878 L642.617,553.591 Q631.488,550.446,620.239,550.446 L620.239,550.446 Q602.094,550.446,592.629,559.821 Q583.163,569.195,583.163,589.517 L583.163,589.517 Q583.163,610.565,592.508,619.698 Q601.852,628.830,619.392,628.830 L619.392,628.830 Q625.501,628.830,630.944,627.953 Q636.387,627.076,642.617,624.960 L642.617,624.960 L642.617,631.733 Q631.972,635.483,619.029,635.483 L619.029,635.483 Z M678.120,634.395 L670.499,634.395 L670.499,544.882 L678.120,544.882 L678.120,584.981 L735.396,584.981 L735.396,544.882 L743.017,544.882 L743.017,634.395 L735.396,634.395 L735.396,591.876 L678.120,591.876 L678.120,634.395 Z M787.350,591.634 L787.350,627.984 L840.574,627.984 L840.574,634.395 L779.790,634.395 L779.790,544.882 L839.969,544.882 L839.969,551.293 L787.350,551.293 L787.350,585.223 L833.921,585.223 L833.921,591.634 L787.350,591.634 Z M940.792,634.395 L931.841,634.395 L900.269,596.291 Q897.003,596.412,895.189,596.412 L895.189,596.412 Q890.955,596.412,887.417,596.231 Q883.879,596.049,878.859,595.686 L878.859,595.686 L878.859,634.395 L871.359,634.395 L871.359,546.636 Q877.528,545.366,883.727,544.670 Q889.927,543.974,897.306,543.974 L897.306,543.974 Q910.067,543.974,918.202,546.666 Q926.337,549.357,930.329,555.073 Q934.320,560.788,934.320,569.982 L934.320,569.982 Q934.320,591.513,908.434,595.505 L908.434,595.505 L940.792,634.395 Z M878.859,589.396 Q883.818,589.820,887.114,590.001 Q890.411,590.182,895.491,590.182 L895.491,590.182 Q906.620,590.182,913.575,587.975 Q920.531,585.767,923.766,581.352 Q927.002,576.937,927.002,570.163 L927.002,570.163 Q927.002,562.724,923.978,558.369 Q920.954,554.014,914.543,552.109 Q908.132,550.204,897.548,550.204 L897.548,550.204 Q891.923,550.204,887.780,550.597 Q883.637,550.990,878.859,551.837 L878.859,551.837 L878.859,589.396 Z" id="def-eda80b3a-2864-4119-ba2d-f96b5c207aff"></path><path d="M438.979,686.353 L447.495,663.685 L456.301,663.685 L456.301,699.490 L449.624,699.490 L449.624,673.870 L441.713,694.313 L435.980,694.313 L428.068,674.450 L428.068,699.490 L421.391,699.490 L421.391,663.685 L430.197,663.685 L438.979,686.353 Z M471.688,684.273 L471.688,693.321 L486.712,693.321 L486.712,699.490 L464.624,699.490 L464.624,663.685 L486.470,663.685 L486.470,669.854 L471.688,669.854 L471.688,678.104 L484.050,678.104 L484.050,684.273 L471.688,684.273 Z M515.404,667.725 L501.082,693.127 L515.646,693.127 L515.646,699.490 L491.792,699.490 L491.792,695.450 L506.114,670.047 L492.034,670.047 L492.034,663.685 L515.404,663.685 L515.404,667.725 Z M544.048,667.725 L529.726,693.127 L544.290,693.127 L544.290,699.490 L520.436,699.490 L520.436,695.450 L534.758,670.047 L520.678,670.047 L520.678,663.685 L544.048,663.685 L544.048,667.725 Z M564.201,699.950 Q557.427,699.950,553.592,695.498 Q549.758,691.047,549.758,681.587 L549.758,681.587 Q549.758,672.128,553.592,667.676 Q557.427,663.225,564.201,663.225 L564.201,663.225 Q570.975,663.225,574.797,667.676 Q578.620,672.128,578.620,681.587 L578.620,681.587 Q578.620,691.047,574.797,695.498 Q570.975,699.950,564.201,699.950 L564.201,699.950 Z M564.201,693.974 Q566.475,693.974,568.023,692.801 Q569.572,691.627,570.406,688.930 Q571.241,686.232,571.241,681.757 L571.241,681.757 Q571.241,677.112,570.418,674.342 Q569.596,671.572,568.047,670.386 Q566.499,669.201,564.201,669.201 L564.201,669.201 Q561.903,669.201,560.354,670.374 Q558.806,671.547,557.983,674.245 Q557.161,676.942,557.161,681.418 L557.161,681.418 Q557.161,686.063,557.983,688.833 Q558.806,691.603,560.354,692.789 Q561.903,693.974,564.201,693.974 L564.201,693.974 Z" id="def-1b371939-2ee4-429e-92aa-d1d5231815cd"></path><mask id="mask-ef5eaad1-0a90-44ec-9a96-57fe02c976f1" x="29.860" y="279.874" width="940.279" height="443.927" maskUnits="userSpaceOnUse" stroke-width="0"><rect x="50.039" y="300.052" width="899.922" height="403.570" fill="#000"></rect><use xlink:href="#def-581d6a65-7332-4395-95ed-d6ea97869e95" fill="#fff" stroke="#fff"></use><use xlink:href="#def-eda80b3a-2864-4119-ba2d-f96b5c207aff" fill="#fff" stroke="#fff"></use><use xlink:href="#def-1b371939-2ee4-429e-92aa-d1d5231815cd" fill="#fff" stroke="#fff"></use></mask></defs><rect id="background-shape-b8560656-f09a-4b3c-b8ed-e7735edb720a" x="-273.063" y="0.000" width="1546.125" height="1000.000" fill="url(#gradient-f894b5d7-6212-4963-ae67-7d3db1b35059)"></rect><g mask="url(#mask-ef5eaad1-0a90-44ec-9a96-57fe02c976f1)"><rect x="50.039" y="300.052" width="899.922" height="403.570" fill="#0d1324"></rect></g><g opacity="0"><rect fill="none" stroke="#fff" stroke-dasharray="11.07010739856802" stroke-dashoffset="0" stroke-width="1.8450178997613365"></rect><rect fill="none" stroke="#000" stroke-dasharray="11.07010739856802" stroke-dashoffset="11.07010739856802" stroke-width="1.8450178997613365"></rect></g><g opacity="1"><rect fill="none" stroke="#fff" stroke-dasharray="5.53505369928401" stroke-dashoffset="0" stroke-width="1.8450178997613365" x="-263.063" y="10" width="1526.125" height="980"></rect><rect fill="none" stroke="#000" stroke-dasharray="5.53505369928401" stroke-dashoffset="5.53505369928401" stroke-width="1.8450178997613365" x="-263.063" y="10" width="1526.125" height="980"></rect></g></svg>