<svg version="1.1" preserveAspectRatio="xMidYMid meet" xmlns="http://www.w3.org/2000/svg" xmlns:xlink="http://www.w3.org/1999/xlink" viewBox="-273.063 0.000 1546.125 1000.000" style="cursor: pointer;"><defs><radialGradient id="gradient-d33ec6a4-56bf-4749-9b08-f24fa7ae3bd9" gradientUnits="objectBoundingBox" gradientTransform="translate(0.5, 0.5) scale(1, 1.546) translate(-0.5, -0.5)" cx="0.875" cy="0.125" r="1.030"><stop offset="0.000" stop-color="#ffff65" stop-opacity="1"></stop><stop offset="0.500" stop-color="#e5e219" stop-opacity="1"></stop><stop offset="1.000" stop-color="#adbc00" stop-opacity="1"></stop></radialGradient><g transform="matrix(3.232, 0.000, 0.000, 3.232, 373.459, 215.812)" fill="#fff" stroke="none" stroke-width="1" id="def-2eec5127-ab42-4e17-8628-c5755806cf60"><g transform="translate(-10.843599757056694, -0.455302501637334)"><path d=" M88.63,58.42 a8.09,8.09,0,0,1 -2.35,6.38 L64.51,86.56 a16.8,16.8,0,0,1 -12,5 H25.68 l-6.75,6.75 a2.5,2.5,0,0,1 -3.54 -3.54 l7.49 -7.49 a2.5,2.5,0,0,1,1.77 -0.73 h27.9 A11.84,11.84,0,0,0,61,83 L82.74,61.26 a3.1,3.1,0,0,0 -4.39 -4.39 L62.76,72.46 a2.5,2.5,0,0,1 -0.42 0.33 A8.13,8.13,0,0,1,55.5,76.6 H38.86 a2.5,2.5,0,0,1,0 -5 H55.5 a3.09,3.09,0,0,0,3 -2.41,3.07,3.07,0,0,0 -3 -3.73 H26.79 a9.82,9.82,0,0,0 -7,2.9 l-4.19,4.18 A2.5,2.5,0,0,1,12.08,69 l4.19 -4.18 a14.79,14.79,0,0,1,10.52 -4.36 H55.5 a8,8,0,0,1,7.38,4.81 L74.82,53.33 a8.1,8.1,0,0,1,13.81,5.08 Z M49.31,1 A27.48,27.48,0,1,1,21.83,28.48,27.51,27.51,0,0,1,49.31,1 Z M27.6,22.65 a22.42,22.42,0,0,0,0,11.66 h9.81 a37.3,37.3,0,0,1,0 -11.66 H27.6 Z m16.23 -5 h11 a34.43,34.43,0,0,0 -5.48 -9.92 A34.41,34.41,0,0,0,43.83,17.65 Z m-1.33,5 a32.49,32.49,0,0,0,0,11.66 H56.12 a32.49,32.49,0,0,0,0 -11.66 Z m28.52,0 H61.2 a37.3,37.3,0,0,1,0,11.66 H71 a22.42,22.42,0,0,0,0 -11.66 Z M54.78,39.31 h-11 a34.42,34.42,0,0,0,5.48,9.92 A34.42,34.42,0,0,0,54.78,39.31 Z m-10.9,11 a39,39,0,0,1 -5.33 -11 H29.62 A22.57,22.57,0,0,0,43.89,50.3 Z M69,39.31 H60.06 a39,39,0,0,1 -5.33,11 A22.57,22.57,0,0,0,69,39.31 Z M54.73,6.67 a39.06,39.06,0,0,1,5.33,11 H69 A22.57,22.57,0,0,0,54.73,6.67 Z m-25.12,11 h8.94 a39,39,0,0,1,5.33 -11 A22.57,22.57,0,0,0,29.62,17.65 Z"></path></g></g><path d="M123.973,672.188 L123.973,709.774 L179.008,709.774 L179.008,716.403 L116.156,716.403 L116.156,623.844 L178.383,623.844 L178.383,630.474 L123.973,630.474 L123.973,665.558 L172.129,665.558 L172.129,672.188 L123.973,672.188 Z M283.011,623.844 L246.551,669.311 L284.075,716.403 L274.569,716.403 L241.673,675.064 L208.777,716.403 L199.521,716.403 L236.982,669.498 L200.459,623.844 L209.965,623.844 L241.860,663.745 L273.881,623.844 L283.011,623.844 Z M310.904,716.403 L310.904,625.533 Q317.721,624.157,323.819,623.532 Q329.916,622.906,336.858,622.906 L336.858,622.906 Q356.120,622.906,365.970,630.442 Q375.820,637.978,375.820,653.801 L375.820,653.801 Q375.820,669.248,365.783,677.191 Q355.745,685.133,334.482,685.133 L334.482,685.133 Q326.351,685.133,318.784,684.383 L318.784,684.383 L318.784,716.403 L310.904,716.403 Z M334.482,678.754 Q346.427,678.754,353.806,676.002 Q361.186,673.251,364.563,667.779 Q367.940,662.306,367.940,653.926 L367.940,653.926 Q367.940,641.230,360.342,635.289 Q352.743,629.348,337.296,629.348 L337.296,629.348 Q327.289,629.348,318.784,630.911 L318.784,630.911 L318.784,677.691 Q326.539,678.754,334.482,678.754 L334.482,678.754 Z M445.302,717.529 Q432.356,717.529,422.850,712.401 Q413.344,707.272,408.091,696.672 Q402.837,686.071,402.837,670.124 L402.837,670.124 Q402.837,654.176,408.153,643.576 Q413.469,632.975,423.006,627.847 Q432.544,622.719,445.302,622.719 L445.302,622.719 Q458.185,622.719,467.691,627.847 Q477.197,632.975,482.450,643.576 Q487.704,654.176,487.704,670.124 L487.704,670.124 Q487.704,686.071,482.388,696.672 Q477.072,707.272,467.566,712.401 Q458.060,717.529,445.302,717.529 L445.302,717.529 Z M445.302,710.649 Q461.375,710.649,470.474,700.862 Q479.574,691.075,479.574,670.436 L479.574,670.436 Q479.574,649.361,470.474,639.479 Q461.375,629.598,445.302,629.598 L445.302,629.598 Q429.229,629.598,420.130,639.354 Q411.030,649.110,411.030,669.811 L411.030,669.811 Q411.030,690.949,420.098,700.799 Q429.167,710.649,445.302,710.649 L445.302,710.649 Z M541.300,717.529 Q534.859,717.529,528.261,716.497 Q521.663,715.465,515.721,713.464 L515.721,713.464 L515.721,706.584 Q522.101,708.711,528.730,709.743 Q535.359,710.775,541.425,710.775 L541.425,710.775 Q568.442,710.775,568.442,692.013 L568.442,692.013 Q568.442,686.822,566.191,683.413 Q563.940,680.005,559.124,677.816 Q554.308,675.627,546.178,674.001 L546.178,674.001 L541.050,673.001 Q527.229,670.374,520.818,664.308 Q514.408,658.241,514.408,648.110 L514.408,648.110 Q514.408,640.230,518.286,634.539 Q522.163,628.848,529.887,625.783 Q537.610,622.719,548.993,622.719 L548.993,622.719 Q561.688,622.719,572.382,626.033 L572.382,626.033 L572.382,632.913 Q561.125,629.473,548.930,629.473 L548.930,629.473 Q535.609,629.473,528.980,634.163 Q522.351,638.854,522.351,647.735 L522.351,647.735 Q522.351,652.925,524.352,656.365 Q526.353,659.805,530.794,662.056 Q535.234,664.308,542.864,665.809 L542.864,665.809 L548.054,666.809 Q558.186,668.810,564.440,672.094 Q570.694,675.377,573.571,680.161 Q576.447,684.946,576.447,691.637 L576.447,691.637 Q576.447,699.893,572.320,705.709 Q568.192,711.525,560.312,714.527 Q552.432,717.529,541.300,717.529 L541.300,717.529 Z M644.366,717.529 Q631.670,717.529,623.477,713.526 Q615.285,709.524,611.282,701.237 Q607.280,692.951,607.280,679.880 L607.280,679.880 L607.280,623.844 L615.160,623.844 L615.160,680.756 Q615.160,691.262,618.318,697.829 Q621.476,704.396,627.886,707.522 Q634.297,710.649,644.366,710.649 L644.366,710.649 Q654.434,710.649,660.876,707.522 Q667.318,704.396,670.476,697.829 Q673.634,691.262,673.634,680.756 L673.634,680.756 L673.634,623.844 L681.326,623.844 L681.326,679.880 Q681.326,692.951,677.355,701.237 Q673.384,709.524,665.223,713.526 Q657.061,717.529,644.366,717.529 L644.366,717.529 Z M790.646,716.403 L781.390,716.403 L748.744,677.003 Q745.367,677.128,743.491,677.128 L743.491,677.128 Q739.113,677.128,735.455,676.941 Q731.796,676.753,726.605,676.378 L726.605,676.378 L726.605,716.403 L718.850,716.403 L718.850,625.658 Q725.229,624.345,731.640,623.626 Q738.050,622.906,745.680,622.906 L745.680,622.906 Q758.876,622.906,767.287,625.689 Q775.699,628.472,779.826,634.382 Q783.954,640.292,783.954,649.798 L783.954,649.798 Q783.954,672.063,757.187,676.190 L757.187,676.190 L790.646,716.403 Z M726.605,669.874 Q731.733,670.311,735.142,670.499 Q738.550,670.687,743.804,670.687 L743.804,670.687 Q755.311,670.687,762.503,668.404 Q769.695,666.121,773.041,661.556 Q776.387,656.990,776.387,649.986 L776.387,649.986 Q776.387,642.294,773.260,637.791 Q770.133,633.288,763.504,631.318 Q756.874,629.348,745.930,629.348 L745.930,629.348 Q740.114,629.348,735.830,629.754 Q731.546,630.161,726.605,631.036 L726.605,631.036 L726.605,669.874 Z M828.858,672.188 L828.858,709.774 L883.892,709.774 L883.892,716.403 L821.040,716.403 L821.040,623.844 L883.267,623.844 L883.267,630.474 L828.858,630.474 L828.858,665.558 L877.013,665.558 L877.013,672.188 L828.858,672.188 Z" id="def-8fc64e93-49ff-47c0-8fe8-ea43c6846454"></path><path d="M436.903,770.131 L445.709,746.691 L454.815,746.691 L454.815,783.715 L447.910,783.715 L447.910,757.223 L439.730,778.361 L433.801,778.361 L425.621,757.823 L425.621,783.715 L418.717,783.715 L418.717,746.691 L427.822,746.691 L436.903,770.131 Z M470.725,767.980 L470.725,777.336 L486.259,777.336 L486.259,783.715 L463.420,783.715 L463.420,746.691 L486.009,746.691 L486.009,753.070 L470.725,753.070 L470.725,761.601 L483.508,761.601 L483.508,767.980 L470.725,767.980 Z M515.928,750.869 L501.119,777.136 L516.178,777.136 L516.178,783.715 L491.513,783.715 L491.513,779.537 L506.322,753.270 L491.763,753.270 L491.763,746.691 L515.928,746.691 L515.928,750.869 Z M545.547,750.869 L530.738,777.136 L545.797,777.136 L545.797,783.715 L521.132,783.715 L521.132,779.537 L535.941,753.270 L521.382,753.270 L521.382,746.691 L545.547,746.691 L545.547,750.869 Z M566.385,784.190 Q559.381,784.190,555.416,779.587 Q551.451,774.984,551.451,765.203 L551.451,765.203 Q551.451,755.422,555.416,750.819 Q559.381,746.216,566.385,746.216 L566.385,746.216 Q573.390,746.216,577.342,750.819 Q581.295,755.422,581.295,765.203 L581.295,765.203 Q581.295,774.984,577.342,779.587 Q573.390,784.190,566.385,784.190 L566.385,784.190 Z M566.385,778.011 Q568.737,778.011,570.338,776.798 Q571.939,775.585,572.802,772.795 Q573.665,770.006,573.665,765.378 L573.665,765.378 Q573.665,760.575,572.814,757.711 Q571.964,754.846,570.363,753.621 Q568.762,752.395,566.385,752.395 L566.385,752.395 Q564.009,752.395,562.408,753.608 Q560.807,754.821,559.956,757.611 Q559.106,760.400,559.106,765.028 L559.106,765.028 Q559.106,769.831,559.956,772.695 Q560.807,775.560,562.408,776.785 Q564.009,778.011,566.385,778.011 L566.385,778.011 Z" id="def-39f05f35-7bfd-4f2e-b8e9-5819a2d33968"></path><mask id="mask-311564e8-d1f8-4199-bcfd-e4a953638706" x="78.018" y="187.203" width="843.965" height="629.393" maskUnits="userSpaceOnUse" stroke-width="0"><rect x="106.626" y="215.812" width="786.747" height="572.176" fill="#000"></rect><use xlink:href="#def-2eec5127-ab42-4e17-8628-c5755806cf60" fill="#fff" stroke="#fff"></use><use xlink:href="#def-8fc64e93-49ff-47c0-8fe8-ea43c6846454" fill="#fff" stroke="#fff"></use><use xlink:href="#def-39f05f35-7bfd-4f2e-b8e9-5819a2d33968" fill="#fff" stroke="#fff"></use></mask></defs><rect id="background-shape-745393c1-306d-4631-84ab-b23461bfc8f0" x="-273.063" y="0.000" width="1546.125" height="1000.000" fill="url(#gradient-d33ec6a4-56bf-4749-9b08-f24fa7ae3bd9)"></rect><g mask="url(#mask-311564e8-d1f8-4199-bcfd-e4a953638706)"><rect x="106.626" y="215.812" width="786.747" height="572.176" fill="#0d1324"></rect></g><g opacity="0"><rect fill="none" stroke="#fff" stroke-dasharray="11.07010739856802" stroke-dashoffset="0" stroke-width="1.8450178997613365"></rect><rect fill="none" stroke="#000" stroke-dasharray="11.07010739856802" stroke-dashoffset="11.07010739856802" stroke-width="1.8450178997613365"></rect></g><g opacity="1"><rect fill="none" stroke="#fff" stroke-dasharray="5.53505369928401" stroke-dashoffset="0" stroke-width="1.8450178997613365" x="-263.063" y="10" width="1526.125" height="980"></rect><rect fill="none" stroke="#000" stroke-dasharray="5.53505369928401" stroke-dashoffset="5.53505369928401" stroke-width="1.8450178997613365" x="-263.063" y="10" width="1526.125" height="980"></rect></g></svg>