<svg version="1.1" preserveAspectRatio="xMidYMid meet" xmlns="http://www.w3.org/2000/svg" xmlns:xlink="http://www.w3.org/1999/xlink" viewBox="-273.063 0.000 1546.125 1000.000" style="cursor: pointer;"><defs><radialGradient id="gradient-cb2647e8-8912-463d-ae18-4f8532818c88" gradientUnits="objectBoundingBox" gradientTransform="translate(0.5, 0.5) scale(1, 1.546) translate(-0.5, -0.5)" cx="0.875" cy="0.125" r="1.030"><stop offset="0.000" stop-color="#9affa2" stop-opacity="1"></stop><stop offset="0.167" stop-color="#80faa2" stop-opacity="1"></stop><stop offset="0.333" stop-color="#5df1a0" stop-opacity="1"></stop><stop offset="0.500" stop-color="#19e59c" stop-opacity="1"></stop><stop offset="0.667" stop-color="#00d999" stop-opacity="1"></stop><stop offset="0.833" stop-color="#00cf9a" stop-opacity="1"></stop><stop offset="1.000" stop-color="#00c89e" stop-opacity="1"></stop></radialGradient><g transform="matrix(4.229, 0.000, 0.000, 4.229, 293.574, 193.579)" fill="#fff" stroke="none" stroke-width="1" id="def-ac37e576-79ab-426a-ac8d-134fdd776a38"><g transform="translate(-1.1855382421828722, -12.500788518633357)"><g><path fill="#fff" d=" M26.156,17.608 c10.595 -0.015,21.19 -0.002,31.786 -0.007 c5.051,0.004,10.102 -0.008,15.151,0.007 c0.011,6.716,0.01,13.433,0,20.149 c-0.98,0.054 -1.955,0.19 -2.924,0.351 c-0.007 -5.857,0 -11.716 -0.003 -17.573 c-13.694 -0.002 -27.389 -0.002 -41.083,0 c-0.001,7.069,0,14.138 -0.001,21.207 c0.008,1.738 -0.016,3.477,0.012,5.216 c4.459 -0.018,8.919 -0.004,13.378 -0.008 c4.192,0.008,8.385 -0.016,12.576,0.01 c-0.723,0.938 -1.446,1.877 -2.055,2.895 c-8.937,0.018 -17.876 -0.008 -26.813,0.014 c-0.043 -0.268 -0.022 -0.539 -0.025 -0.807 c0 -6.211,0 -12.421,0 -18.63 C26.16,26.156,26.138,21.882,26.156,17.608 z"></path><path fill="#fff" d=" M39.082,23.79 c1.153 -0.081,2.333,0.323,3.196,1.094 c0.934,0.819,1.502,2.056,1.476,3.302 c0.031,1.326 -0.619,2.636 -1.659,3.452 c-0.932,0.743 -2.181,1.088 -3.36,0.901 c-0.966 -0.13 -1.885 -0.598 -2.551 -1.31 c-1.056 -1.071 -1.476 -2.713 -1.082 -4.162 C35.542,25.269,37.232,23.876,39.082,23.79 z"></path><path fill="#fff" d=" M55.106,29.596 c0.131 -0.189,0.24 -0.396,0.396 -0.566 c1.684,2.835,3.392,5.656,5.084,8.486 c0.646,1.102,1.34,2.179,1.956,3.298 c-1.45,0.785 -2.819,1.719 -4.089,2.77 c-0.112,0.119 -0.281,0.103 -0.429,0.105 c-7.667 -0.01 -15.336,0.01 -23.005 -0.011 c0.064 -0.167,0.223 -0.269,0.34 -0.397 c2.745 -2.745,5.491 -5.486,8.232 -8.233 c0.071 -0.062,0.157 -0.194,0.265 -0.109 c1.92,0.958,3.839,1.92,5.759,2.878 C51.458,35.084,53.274,32.335,55.106,29.596 z"></path><g><path fill="#fff" d=" M3.314,32.83 c0.187 -0.042,0.378 -0.028,0.567 -0.028 c6.709,0.005,13.418 -0.005,20.127,0.005 l0.047,0.056 c0.012,0.959 -0.009,1.92,0.011,2.88 c-3.961,0.028 -7.923,0.001 -11.885,0.013 c-0.008,5.854 -0.01,11.708,0.001,17.562 c8.715,0.01,17.43,0.01,26.145,0 c0.016 -0.494 -0.001 -0.99,0.009 -1.484 c2.95,0.008,5.901,0.008,8.852,0 c0.002,8.324,0.007,16.648 -0.002,24.973 c-8.835 -0.018 -17.67 -0.002 -26.505 -0.008 c-5.785,0.006 -11.571 -0.01 -17.356,0.008 C3.311,62.147,3.332,47.487,3.314,32.83 z M5.826,35.796 c-0.661,0.173 -1.153,0.845 -1.084,1.53 c0.058,0.731,0.727,1.347,1.462,1.335 c1,0.001,2.001,0.011,3.002 -0.005 c0.76 -0.027,1.41 -0.73,1.373 -1.489 c-0.002 -0.731 -0.634 -1.391 -1.366 -1.412 c-0.946 -0.007 -1.89,0.001 -2.836 -0.004 C6.193,35.754,6.004,35.742,5.826,35.796 z M5.666,41.713 c-0.596,0.232 -1.004,0.882 -0.919,1.522 c0.073,0.688,0.688,1.265,1.382,1.288 c0.914,0.012,1.829 -0.001,2.744,0.006 c0.321,0.006,0.658 -0.018,0.942 -0.18 c0.534 -0.286,0.858 -0.922,0.745 -1.522 c-0.099 -0.652 -0.694 -1.188 -1.354 -1.207 c-0.971 -0.005 -1.94,0.002 -2.91 -0.003 C6.083,41.614,5.865,41.629,5.666,41.713 z M5.826,47.524 c-0.557,0.146 -1.003,0.648 -1.076,1.221 c-0.093,0.619,0.281,1.26,0.847,1.514 c0.295,0.141,0.628,0.139,0.947,0.133 c0.89 -0.006,1.78,0.008,2.67 -0.006 c0.755 -0.035,1.404 -0.732,1.366 -1.492 c-0.005 -0.729 -0.636 -1.387 -1.368 -1.41 c-0.945 -0.008 -1.889,0.002 -2.835 -0.004 C6.193,47.479,6.005,47.474,5.826,47.524 z M5.818,53.394 c-0.744,0.182 -1.247,1.021 -1.033,1.762 c0.154,0.637,0.773,1.109,1.427,1.098 c0.997 -0.002,1.994,0.008,2.991 -0.004 c0.745 -0.025,1.393 -0.703,1.376 -1.449 c0.019 -0.746 -0.627 -1.436 -1.375 -1.453 c-0.915 -0.008 -1.83,0.002 -2.745 -0.002 C6.246,53.343,6.027,53.333,5.818,53.394 z M40.999,53.394 c-0.817,0.199 -1.309,1.178 -0.968,1.951 c0.216,0.539,0.779,0.914,1.361,0.908 c0.969,0.002,1.939,0.002,2.908,0 c0.772,0.018,1.486 -0.672,1.459 -1.451 c0.033 -0.75 -0.628 -1.438 -1.375 -1.455 c-0.915 -0.006 -1.83,0.002 -2.745 -0.002 C41.425,53.345,41.207,53.333,40.999,53.394 z M12.184,56.282 c-0.011,5.854 -0.009,11.707 -0.001,17.561 c8.715,0.002,17.431,0.002,26.146,0 c0.008 -5.854,0.01 -11.707 -0.001 -17.561 C29.613,56.271,20.898,56.271,12.184,56.282 z M5.826,59.253 c-0.583,0.152 -1.04,0.691 -1.084,1.293 c-0.082,0.785,0.589,1.543,1.377,1.568 c1.003,0.01,2.006,0.002,3.008,0.004 c0.757,0.008,1.446 -0.652,1.452 -1.414 c0.04 -0.758 -0.607 -1.469 -1.367 -1.494 c-0.917 -0.008 -1.834,0.002 -2.752 -0.004 C6.249,59.206,6.033,59.196,5.826,59.253 z M41.007,59.255 c-0.696,0.172 -1.187,0.912 -1.065,1.619 c0.09,0.695,0.743,1.254,1.442,1.244 c0.975,0,1.949,0,2.923,0 c0.754,0.01,1.458 -0.65,1.451 -1.414 c0.052 -0.76 -0.606 -1.475 -1.365 -1.494 c-0.917 -0.008 -1.835,0.002 -2.752 -0.004 C41.429,59.206,41.212,59.196,41.007,59.255 z M5.819,65.12 c-0.699,0.178 -1.195,0.926 -1.061,1.639 c0.102,0.66,0.7,1.201,1.371,1.219 c0.997,0.008,1.994,0,2.991,0.004 c0.775,0.016,1.479 -0.678,1.46 -1.455 c0.02 -0.748 -0.629 -1.432 -1.376 -1.453 c-0.886 -0.008 -1.774,0.002 -2.66 -0.002 C6.301,65.071,6.055,65.056,5.819,65.12 z M40.999,65.122 c-0.678,0.17 -1.159,0.877 -1.065,1.57 c0.068,0.686,0.684,1.264,1.374,1.285 c0.998,0.008,1.996,0,2.993,0.004 c0.772,0.012,1.494 -0.672,1.458 -1.455 c0.033 -0.75 -0.628 -1.436 -1.375 -1.453 c-0.915 -0.008 -1.829,0.002 -2.744 -0.002 C41.425,65.069,41.207,65.062,40.999,65.122 z M5.826,70.981 c-0.583,0.15 -1.04,0.689 -1.084,1.291 c-0.081,0.785,0.587,1.549,1.377,1.568 c1.003,0.01,2.006,0.002,3.008,0.004 c0.757,0.012,1.446 -0.654,1.452 -1.414 c0.04 -0.758 -0.61 -1.465 -1.367 -1.494 c-0.917 -0.008 -1.834,0.002 -2.752 -0.004 C6.249,70.933,6.033,70.925,5.826,70.981 z M41.007,70.981 c-0.649,0.162 -1.129,0.82 -1.08,1.488 c0.026,0.715,0.653,1.348,1.371,1.371 c1.002,0.01,2.005,0.002,3.008,0.004 c0.756,0.012,1.458 -0.648,1.452 -1.412 c0.052 -0.762 -0.609 -1.471 -1.366 -1.496 c-0.917 -0.008 -1.835,0.002 -2.752 -0.004 C41.429,70.933,41.212,70.925,41.007,70.981 z"></path></g><g><path fill="#fff" d=" M73.597,40.01 c4.928 -0.264,9.932,1.07,14.056,3.787 c2.73,1.778,5.079,4.136,6.859,6.864 c1.979,3.029,3.241,6.523,3.648,10.119 c0.452,3.938 -0.089,7.994 -1.61,11.658 c-1.277,3.125 -3.254,5.957 -5.722,8.26 c-2.402,2.234 -5.273,3.969 -8.379,5.029 c-3.619,1.246 -7.545,1.584 -11.325,0.982 c-3.449 -0.535 -6.77 -1.865 -9.642 -3.846 c-3.762 -2.582 -6.744 -6.283 -8.458 -10.512 c-1.33 -3.252 -1.902 -6.811 -1.683 -10.314 c0.201 -3.395,1.155 -6.742,2.777 -9.73 c1.499 -2.771,3.562 -5.236,6.025 -7.199 C63.947,42.054,68.726,40.244,73.597,40.01 z M84.882,48.835 c-6.18,0.719 -12.36,1.42 -18.538,2.145 c-0.01,5.99,0.004,11.982 -0.006,17.973 c-1.682 -0.623 -3.628 -0.582 -5.237,0.234 c-0.962,0.488 -1.804,1.295 -2.168,2.328 c-0.364,0.996 -0.209,2.156,0.382,3.033 c0.544,0.848,1.408,1.453,2.34,1.811 c1.071,0.418,2.253,0.496,3.385,0.332 c1.366 -0.217,2.707 -0.898,3.517 -2.045 c0.485 -0.688,0.698 -1.545,0.647 -2.379 c-0.01 -5.182,0.006 -10.363 -0.007 -15.545 c1.429 -0.207,2.868 -0.336,4.301 -0.514 c3.576 -0.412,7.15 -0.826,10.725 -1.236 c0,3.922,0,7.842,0,11.764 c-1.213 -0.414 -2.536 -0.555 -3.795 -0.266 c-1.276,0.279 -2.52,0.969 -3.24,2.086 c-0.529,0.795 -0.703,1.814 -0.461,2.74 c0.232,0.879,0.81,1.648,1.547,2.174 c1.109,0.809,2.513,1.158,3.874,1.094 c1.473 -0.061,2.974 -0.619,3.977 -1.729 c0.692 -0.754,1.041 -1.797,0.961 -2.814 c-0.005 -4.963 -0.001 -9.926 -0.003 -14.889 c0.042 -2.176 -0.002 -4.352 -0.002 -6.527 C86.345,48.644,85.613,48.761,84.882,48.835 z"></path></g></g></g></g><path d="M266.961,695.370 L314.657,603.158 L326.263,603.158 L326.263,720.807 L316.724,720.807 L316.724,618.262 L271.572,704.670 L261.953,704.670 L216.802,618.818 L216.802,720.807 L207.342,720.807 L207.342,603.158 L218.868,603.158 L266.961,695.370 Z M384.849,664.606 L384.849,712.381 L454.802,712.381 L454.802,720.807 L374.912,720.807 L374.912,603.158 L454.007,603.158 L454.007,611.585 L384.849,611.585 L384.849,656.180 L446.058,656.180 L446.058,664.606 L384.849,664.606 Z M527.220,721.682 Q519.112,721.682,511.719,721.205 Q504.326,720.728,495.264,719.535 L495.264,719.535 L495.264,605.464 Q503.213,603.794,512.236,602.920 Q521.258,602.045,529.446,602.045 L529.446,602.045 Q561.004,602.045,577.181,617.070 Q593.358,632.094,593.358,661.983 L593.358,661.983 Q593.358,692.110,576.823,706.896 Q560.289,721.682,527.220,721.682 L527.220,721.682 Z M528.810,713.017 Q556.155,713.017,569.589,700.537 Q583.024,688.056,583.024,661.903 L583.024,661.903 Q583.024,635.909,569.589,623.310 Q556.155,610.710,529.207,610.710 L529.207,610.710 Q518.317,610.710,505.280,612.777 L505.280,612.777 L505.280,711.427 Q515.057,713.017,528.810,713.017 L528.810,713.017 Z M645.823,720.807 L635.807,720.807 L635.807,603.158 L645.823,603.158 L645.823,720.807 Z M792.566,720.807 L782.232,720.807 L765.856,680.982 L707.906,680.982 L691.531,720.807 L681.276,720.807 L730.164,603.158 L743.757,603.158 L792.566,720.807 Z M736.842,610.631 L711.404,672.555 L762.359,672.555 L736.842,610.631 Z" id="def-6102363f-6791-4da0-9caa-a55326cb41b0"></path><path d="M419.799,788.553 L430.992,758.759 L442.566,758.759 L442.566,805.819 L433.790,805.819 L433.790,772.146 L423.392,799.014 L415.856,799.014 L405.459,772.909 L405.459,805.819 L396.683,805.819 L396.683,758.759 L408.257,758.759 L419.799,788.553 Z M462.789,785.819 L462.789,797.711 L482.535,797.711 L482.535,805.819 L453.504,805.819 L453.504,758.759 L482.217,758.759 L482.217,766.868 L462.789,766.868 L462.789,777.710 L479.037,777.710 L479.037,785.819 L462.789,785.819 Z M520.246,764.070 L501.422,797.456 L520.564,797.456 L520.564,805.819 L489.212,805.819 L489.212,800.509 L508.036,767.122 L489.530,767.122 L489.530,758.759 L520.246,758.759 L520.246,764.070 Z M557.894,764.070 L539.070,797.456 L558.212,797.456 L558.212,805.819 L526.860,805.819 L526.860,800.509 L545.684,767.122 L527.178,767.122 L527.178,758.759 L557.894,758.759 L557.894,764.070 Z M584.381,806.423 Q575.477,806.423,570.438,800.573 Q565.398,794.722,565.398,782.289 L565.398,782.289 Q565.398,769.857,570.438,764.006 Q575.477,758.155,584.381,758.155 L584.381,758.155 Q593.284,758.155,598.308,764.006 Q603.332,769.857,603.332,782.289 L603.332,782.289 Q603.332,794.722,598.308,800.573 Q593.284,806.423,584.381,806.423 L584.381,806.423 Z M584.381,798.569 Q587.369,798.569,589.404,797.027 Q591.440,795.485,592.537,791.940 Q593.633,788.394,593.633,782.512 L593.633,782.512 Q593.633,776.407,592.552,772.766 Q591.471,769.125,589.436,767.567 Q587.401,766.009,584.381,766.009 L584.381,766.009 Q581.360,766.009,579.325,767.551 Q577.290,769.093,576.209,772.639 Q575.128,776.184,575.128,782.067 L575.128,782.067 Q575.128,788.172,576.209,791.812 Q577.290,795.453,579.325,797.011 Q581.360,798.569,584.381,798.569 L584.381,798.569 Z" id="def-42b36540-8ec5-4b4e-83a3-e69e47d7483b"></path><mask id="mask-a91f21cb-5352-4cb6-a0a9-b4e12b78fb54" x="164.916" y="163.117" width="670.168" height="678.595" maskUnits="userSpaceOnUse" stroke-width="0"><rect x="195.378" y="193.579" width="609.244" height="617.671" fill="#000"></rect><use xlink:href="#def-ac37e576-79ab-426a-ac8d-134fdd776a38" fill="#fff" stroke="#fff"></use><use xlink:href="#def-6102363f-6791-4da0-9caa-a55326cb41b0" fill="#fff" stroke="#fff"></use><use xlink:href="#def-42b36540-8ec5-4b4e-83a3-e69e47d7483b" fill="#fff" stroke="#fff"></use></mask></defs><rect id="background-shape-1abab475-2c7e-41ec-a852-a33594609522" x="-273.063" y="0.000" width="1546.125" height="1000.000" fill="url(#gradient-cb2647e8-8912-463d-ae18-4f8532818c88)"></rect><g mask="url(#mask-a91f21cb-5352-4cb6-a0a9-b4e12b78fb54)"><rect x="195.378" y="193.579" width="609.244" height="617.671" fill="#0d1324"></rect></g><g opacity="0"><rect fill="none" stroke="#fff" stroke-dasharray="11.07010739856802" stroke-dashoffset="0" stroke-width="1.8450178997613365" x="-263.063" y="10" width="1526.125" height="980"></rect><rect fill="none" stroke="#000" stroke-dasharray="11.07010739856802" stroke-dashoffset="11.07010739856802" stroke-width="1.8450178997613365" x="-263.063" y="10" width="1526.125" height="980"></rect></g><g opacity="1"><rect fill="none" stroke="#fff" stroke-dasharray="5.53505369928401" stroke-dashoffset="0" stroke-width="1.8450178997613365" x="-263.063" y="10" width="1526.125" height="980"></rect><rect fill="none" stroke="#000" stroke-dasharray="5.53505369928401" stroke-dashoffset="5.53505369928401" stroke-width="1.8450178997613365" x="-263.063" y="10" width="1526.125" height="980"></rect></g></svg>