<svg version="1.1" preserveAspectRatio="xMidYMid meet" xmlns="http://www.w3.org/2000/svg" xmlns:xlink="http://www.w3.org/1999/xlink" viewBox="-273.063 0.000 1546.125 1000.000" style="cursor: pointer;"><defs><radialGradient id="gradient-b38b679c-7240-49b7-a6bf-8715f4b52365" gradientUnits="objectBoundingBox" gradientTransform="translate(0.5, 0.5) scale(1, 1.546) translate(-0.5, -0.5)" cx="0.875" cy="0.125" r="1.030"><stop offset="0.000" stop-color="#ff7303" stop-opacity="1"></stop><stop offset="0.250" stop-color="#ff5804" stop-opacity="1"></stop><stop offset="0.500" stop-color="#f32f03" stop-opacity="1"></stop><stop offset="0.750" stop-color="#e60007" stop-opacity="1"></stop><stop offset="1.000" stop-color="#dc0011" stop-opacity="1"></stop></radialGradient><g transform="matrix(3.623, 0.000, 0.000, 3.623, 321.578, 196.549)" fill="#fff" stroke="none" stroke-width="1" id="def-e383a06f-ef2c-4d1a-a9ee-9f0b87fa2b93"><g transform="translate(-0.7591696845809679, -5.400000000000006)"><path d=" M88.6,31.9 c0.8,1.3,0.3,3 -1,3.7 c-0.4,0.2 -0.9,0.4 -1.4,0.4 c-0.9,0 -1.9 -0.5 -2.4 -1.4 c-3.5 -6 -8.9 -11 -15.7 -14.2 c-1.4 -0.7 -1.9 -2.3 -1.3 -3.6 c0.7 -1.4,2.3 -1.9,3.6 -1.3 C78.4,19.3,84.6,25,88.6,31.9 z M74.4,6.2 c-1.4 -0.7 -3 -0.1 -3.6,1.3 c-0.7,1.4 -0.1,3,1.3,3.6 c9.2,4.5,16.7,11.2,21.5,19.5 c0.5,0.9,1.4,1.4,2.4,1.4 c0.5,0,0.9 -0.1,1.4 -0.4 c1.3 -0.8,1.7 -2.4,1 -3.7 C92.8,18.7,84.6,11.2,74.4,6.2 z M29.4,84.5 c0.4,0.2,0.8,0.3,1.2,0.3 c1,0,2 -0.6,2.5 -1.5 c0.7 -1.4,0.1 -3 -1.3 -3.6 c-6.7 -3.3 -12.1 -8.2 -15.7 -14.2 c-0.8 -1.3 -2.4 -1.7 -3.7 -1 c-1.3,0.8 -1.7,2.4 -1,3.7 C15.4,75,21.6,80.7,29.4,84.5 z M25.6,93.8 c0.4,0.2,0.8,0.3,1.2,0.3 c1,0,2 -0.6,2.5 -1.5 c0.7 -1.4,0.1 -3 -1.3 -3.6 c-9.2 -4.5 -16.7 -11.2 -21.5 -19.5 c-0.8 -1.3 -2.4 -1.7 -3.7 -1 c-1.3,0.8 -1.7,2.4 -1,3.7 C7.2,81.3,15.4,88.8,25.6,93.8 z M82.1,50 c0,6 -2.1,11.8 -6,16.6 c0.7,1.3,1.7,2.4,2.9,3.2 c1.3,0.8,1.9,2.3,1.5,3.8 c-0.3,1.5 -1.5,2.5 -3,2.8 c-1,0.1 -2.1,0.2 -3.1,0.2 c-3.1,0 -5.9 -0.6 -8.5 -1.8 c-4.8,2.5 -10.3,3.8 -15.9,3.8 c-17.7,0 -32.1 -12.8 -32.1 -28.5 S32.3,21.5,50,21.5 C67.7,21.5,82.1,34.3,82.1,50 z M76.5,50 c0 -12.6 -11.9 -22.9 -26.5 -22.9 c-14.6,0 -26.5,10.3 -26.5,22.9 S35.4,72.9,50,72.9 c5.2,0,10.2 -1.3,14.6 -3.8 l1.4 -0.8 l1.4,0.8 c1.4,0.9,3,1.4,4.8,1.7 c-0.8 -1.1 -1.5 -2.4 -2 -3.7 l-0.6 -1.6 l1.2 -1.3 C74.5,60.2,76.5,55.2,76.5,50 z M38.2,46.5 c-2,0 -3.5,1.6 -3.5,3.5 s1.6,3.5,3.5,3.5 c1.9,0,3.5 -1.6,3.5 -3.5 S40.2,46.5,38.2,46.5 z M50,46.5 c-2,0 -3.5,1.6 -3.5,3.5 s1.6,3.5,3.5,3.5 c1.9,0,3.5 -1.6,3.5 -3.5 S52,46.5,50,46.5 z M61.8,46.5 c-1.9,0 -3.5,1.6 -3.5,3.5 s1.6,3.5,3.5,3.5 c2,0,3.5 -1.6,3.5 -3.5 S63.7,46.5,61.8,46.5 z"></path></g></g><path d="M267.942,709.378 L267.942,612.165 L276.894,612.165 L276.894,722.583 L267.121,722.583 L194.379,625.370 L194.379,722.583 L185.427,722.583 L185.427,612.165 L195.200,612.165 L267.942,709.378 Z M367.393,723.926 Q351.949,723.926,340.609,717.808 Q329.268,711.690,323.001,699.045 Q316.734,686.399,316.734,667.374 L316.734,667.374 Q316.734,648.349,323.076,635.703 Q329.418,623.058,340.795,616.940 Q352.173,610.822,367.393,610.822 L367.393,610.822 Q382.762,610.822,394.102,616.940 Q405.442,623.058,411.709,635.703 Q417.976,648.349,417.976,667.374 L417.976,667.374 Q417.976,686.399,411.634,699.045 Q405.293,711.690,393.953,717.808 Q382.612,723.926,367.393,723.926 L367.393,723.926 Z M367.393,715.719 Q386.566,715.719,397.422,704.043 Q408.277,692.367,408.277,667.747 L408.277,667.747 Q408.277,642.605,397.422,630.817 Q386.566,619.029,367.393,619.029 L367.393,619.029 Q348.219,619.029,337.363,630.667 Q326.508,642.306,326.508,667.001 L326.508,667.001 Q326.508,692.218,337.326,703.969 Q348.144,715.719,367.393,715.719 L367.393,715.719 Z M495.194,722.583 L485.868,722.583 L485.868,620.297 L444.088,620.297 L444.088,612.165 L536.899,612.165 L536.899,620.297 L495.194,620.297 L495.194,722.583 Z M578.008,722.583 L568.607,722.583 L568.607,612.165 L578.008,612.165 L578.008,722.583 Z M696.931,612.165 L696.931,620.222 L632.694,620.222 L632.694,662.375 L689.321,662.375 L689.321,670.433 L632.694,670.433 L632.694,722.583 L623.294,722.583 L623.294,612.165 L696.931,612.165 Z M804.290,612.165 L814.586,612.165 L770.493,672.820 L770.493,722.583 L761.093,722.583 L761.093,672.820 L716.179,612.165 L727.072,612.165 L765.942,664.837 L804.290,612.165 Z" id="def-110bccdb-4116-4eb0-ab0f-936a9cf0be23"></path><path d="M424.728,786.682 L435.233,758.719 L446.096,758.719 L446.096,802.886 L437.859,802.886 L437.859,771.283 L428.101,796.500 L421.028,796.500 L411.269,771.999 L411.269,802.886 L403.033,802.886 L403.033,758.719 L413.896,758.719 L424.728,786.682 Z M465.076,784.115 L465.076,795.277 L483.608,795.277 L483.608,802.886 L456.362,802.886 L456.362,758.719 L483.310,758.719 L483.310,766.329 L465.076,766.329 L465.076,776.506 L480.325,776.506 L480.325,784.115 L465.076,784.115 Z M519.002,763.703 L501.335,795.038 L519.300,795.038 L519.300,802.886 L489.875,802.886 L489.875,797.903 L507.542,766.568 L490.174,766.568 L490.174,758.719 L519.002,758.719 L519.002,763.703 Z M554.335,763.703 L536.669,795.038 L554.634,795.038 L554.634,802.886 L525.209,802.886 L525.209,797.903 L542.876,766.568 L525.507,766.568 L525.507,758.719 L554.335,758.719 L554.335,763.703 Z M579.194,803.453 Q570.838,803.453,566.108,797.962 Q561.378,792.471,561.378,780.803 L561.378,780.803 Q561.378,769.134,566.108,763.643 Q570.838,758.152,579.194,758.152 L579.194,758.152 Q587.550,758.152,592.266,763.643 Q596.981,769.134,596.981,780.803 L596.981,780.803 Q596.981,792.471,592.266,797.962 Q587.550,803.453,579.194,803.453 L579.194,803.453 Z M579.194,796.082 Q582.000,796.082,583.910,794.635 Q585.820,793.188,586.849,789.860 Q587.879,786.533,587.879,781.012 L587.879,781.012 Q587.879,775.282,586.864,771.865 Q585.849,768.448,583.939,766.986 Q582.029,765.523,579.194,765.523 L579.194,765.523 Q576.359,765.523,574.449,766.971 Q572.540,768.418,571.525,771.746 Q570.510,775.073,570.510,780.594 L570.510,780.594 Q570.510,786.324,571.525,789.741 Q572.540,793.158,574.449,794.620 Q576.359,796.082,579.194,796.082 L579.194,796.082 Z" id="def-47eca46b-21a3-45b5-8cfe-c83b2dba68a3"></path><mask id="mask-05af7e0a-4094-41d3-9cd2-f2b41c073f76" x="143.532" y="165.977" width="712.936" height="672.578" maskUnits="userSpaceOnUse" stroke-width="0"><rect x="174.104" y="196.549" width="651.792" height="611.435" fill="#000"></rect><use xlink:href="#def-e383a06f-ef2c-4d1a-a9ee-9f0b87fa2b93" fill="#fff" stroke="#fff"></use><use xlink:href="#def-110bccdb-4116-4eb0-ab0f-936a9cf0be23" fill="#fff" stroke="#fff"></use><use xlink:href="#def-47eca46b-21a3-45b5-8cfe-c83b2dba68a3" fill="#fff" stroke="#fff"></use></mask></defs><rect id="background-shape-46c6fa63-1000-4a7c-b223-521a0e23b78f" x="-273.063" y="0.000" width="1546.125" height="1000.000" fill="url(#gradient-b38b679c-7240-49b7-a6bf-8715f4b52365)"></rect><g mask="url(#mask-05af7e0a-4094-41d3-9cd2-f2b41c073f76)"><rect x="174.104" y="196.549" width="651.792" height="611.435" fill="#0d1324"></rect></g><g opacity="0"><rect fill="none" stroke="#fff" stroke-dasharray="11.07010739856802" stroke-dashoffset="0" stroke-width="1.8450178997613365" x="-263.063" y="10" width="1526.125" height="980"></rect><rect fill="none" stroke="#000" stroke-dasharray="11.07010739856802" stroke-dashoffset="11.07010739856802" stroke-width="1.8450178997613365" x="-263.063" y="10" width="1526.125" height="980"></rect></g><g opacity="1"><rect fill="none" stroke="#fff" stroke-dasharray="5.53505369928401" stroke-dashoffset="0" stroke-width="1.8450178997613365" x="-263.063" y="10" width="1526.125" height="980"></rect><rect fill="none" stroke="#000" stroke-dasharray="5.53505369928401" stroke-dashoffset="5.53505369928401" stroke-width="1.8450178997613365" x="-263.063" y="10" width="1526.125" height="980"></rect></g></svg>