<svg version="1.1" preserveAspectRatio="xMidYMid meet" xmlns="http://www.w3.org/2000/svg" xmlns:xlink="http://www.w3.org/1999/xlink" viewBox="-273.063 0.000 1546.125 1000.000" style="cursor: pointer;"><defs><radialGradient id="gradient-0021eb70-8ac0-4942-b252-2f3dc0c0e899" gradientUnits="objectBoundingBox" gradientTransform="translate(0.5, 0.5) scale(1, 1.546) translate(-0.5, -0.5)" cx="0.875" cy="0.125" r="1.030"><stop offset="0.000" stop-color="#ffcf45" stop-opacity="1"></stop><stop offset="0.250" stop-color="#ffba30" stop-opacity="1"></stop><stop offset="0.500" stop-color="#fba10e" stop-opacity="1"></stop><stop offset="0.750" stop-color="#ef8700" stop-opacity="1"></stop><stop offset="1.000" stop-color="#e87000" stop-opacity="1"></stop></radialGradient><g transform="matrix(3.933, 0.000, 0.000, 3.933, 320.958, 223.150)" fill="#fff" stroke="none" stroke-width="1" id="def-d7a95254-4104-4351-b86f-beaa8fc5b8cd"><g transform="translate(-4.478999999999999, -13.294999999999987)"><g><path d=" M80.609,35.165 l12.494,1.794 l0.291 -0.903 l-26.207 -13.73 l-16.664 -4.944 l-0.552 -0.15 l-0.454,0.15 l-16.75,4.979 L6.645,36.056 l0.29,0.903 L19.397,35.2 L5.021,50.921 l15.154,8.668 v9.396 v0.149 l29.343,16.784 l0.503,0.287 l0.502 -0.287 l29.101 -16.646 l0.242 -0.139 v-0.15 v-9.395 l15.155 -8.668 L80.609,35.165 z M78.902,67.324 v0.555 v0.555 v0.144 L50.523,84.811 l-0.043,0.023 V53.246 l0.043,0.046 l14.262,14.922 l6.867 -3.928 l0.484 -0.277 l0.484 -0.276 l6.281 -3.592 V67.324 L78.902,67.324 z M46.206,19.368 L28.641,29.415 l-7.98,4.564 l-0.164,0.094 l0,0 l-0.079,0.011 L9.551,35.618 l23.576 -12.37 L46.206,19.368 z M53.827,19.363 l13,3.85 l23.659,12.405 l-10.863 -1.533 l-0.08 -0.011 l-0.164 -0.094 l-5.898 -3.375 L53.827,19.363 z M49.518,51.091 l-0.071,0.041 L21.61,34.545 l16.345 -9.349 l11.563 -6.614 V51.091 z M20.655,35.25 l0.008 -0.008 l0.083 -0.091 l0.391,0.233 l5.427,3.234 l21.924,13.063 l0.475,0.281 l0.315,0.188 l-0.008,0.009 l-0.384,0.401 L35.08,67.006 l-5.724 -3.273 l-0.485 -0.276 l-0.485 -0.276 l-7.25 -4.147 l-0.481 -0.274 l-0.481 -0.275 L6.542,50.684 l13.633 -14.908 L20.655,35.25 z M78.902,59.03 l-7.25,4.146 l-0.483,0.277 l-0.485,0.277 l-5.724,3.273 L51.156,52.562 l-0.385 -0.403 l-0.008 -0.009 l0.313 -0.188 l0.475 -0.281 l21.933 -13.07 l5.418 -3.228 l0.392 -0.233 l0.084,0.091 l0.007,0.007 l0.48,0.526 l13.633,14.907 L79.865,58.48 l-0.48,0.274 L78.902,59.03 z"></path></g></g></g><path d="M107.909,700.286 L107.909,597.649 Q115.609,596.095,122.496,595.389 Q129.383,594.682,137.224,594.682 L137.224,594.682 Q158.981,594.682,170.106,603.194 Q181.232,611.706,181.232,629.577 L181.232,629.577 Q181.232,647.025,169.894,655.996 Q158.557,664.967,134.540,664.967 L134.540,664.967 Q125.357,664.967,116.810,664.119 L116.810,664.119 L116.810,700.286 L107.909,700.286 Z M134.540,657.762 Q148.032,657.762,156.367,654.654 Q164.702,651.546,168.517,645.365 Q172.331,639.184,172.331,629.719 L172.331,629.719 Q172.331,615.379,163.749,608.669 Q155.166,601.958,137.719,601.958 L137.719,601.958 Q126.416,601.958,116.810,603.724 L116.810,603.724 L116.810,656.561 Q125.569,657.762,134.540,657.762 L134.540,657.762 Z M298.067,700.286 L287.612,700.286 L250.739,655.784 Q246.925,655.925,244.806,655.925 L244.806,655.925 Q239.861,655.925,235.729,655.713 Q231.596,655.502,225.734,655.078 L225.734,655.078 L225.734,700.286 L216.974,700.286 L216.974,597.790 Q224.180,596.307,231.420,595.495 Q238.660,594.682,247.278,594.682 L247.278,594.682 Q262.183,594.682,271.684,597.826 Q281.184,600.969,285.846,607.644 Q290.509,614.320,290.509,625.057 L290.509,625.057 Q290.509,650.204,260.276,654.866 L260.276,654.866 L298.067,700.286 Z M225.734,647.731 Q231.526,648.226,235.376,648.438 Q239.225,648.650,245.159,648.650 L245.159,648.650 Q258.156,648.650,266.280,646.071 Q274.403,643.493,278.182,638.336 Q281.961,633.180,281.961,625.268 L281.961,625.268 Q281.961,616.580,278.430,611.494 Q274.898,606.408,267.410,604.183 Q259.922,601.958,247.561,601.958 L247.561,601.958 Q240.991,601.958,236.153,602.417 Q231.314,602.876,225.734,603.865 L225.734,603.865 L225.734,647.731 Z M375.133,701.558 Q360.511,701.558,349.774,695.765 Q339.037,689.973,333.103,678.000 Q327.170,666.027,327.170,648.014 L327.170,648.014 Q327.170,630.001,333.174,618.028 Q339.178,606.055,349.950,600.263 Q360.723,594.470,375.133,594.470 L375.133,594.470 Q389.684,594.470,400.421,600.263 Q411.158,606.055,417.092,618.028 Q423.026,630.001,423.026,648.014 L423.026,648.014 Q423.026,666.027,417.021,678.000 Q411.017,689.973,400.280,695.765 Q389.543,701.558,375.133,701.558 L375.133,701.558 Z M375.133,693.787 Q393.287,693.787,403.565,682.732 Q413.843,671.678,413.843,648.367 L413.843,648.367 Q413.843,624.562,403.565,613.401 Q393.287,602.240,375.133,602.240 L375.133,602.240 Q356.979,602.240,346.701,613.260 Q336.423,624.280,336.423,647.661 L336.423,647.661 Q336.423,671.536,346.666,682.662 Q356.908,693.787,375.133,693.787 L375.133,693.787 Z M489.143,701.063 Q481.938,701.063,475.368,700.639 Q468.799,700.215,460.746,699.156 L460.746,699.156 L460.746,597.790 Q467.810,596.307,475.827,595.530 Q483.845,594.753,491.121,594.753 L491.121,594.753 Q519.164,594.753,533.539,608.103 Q547.914,621.454,547.914,648.014 L547.914,648.014 Q547.914,674.786,533.221,687.924 Q518.528,701.063,489.143,701.063 L489.143,701.063 Z M490.555,693.363 Q514.855,693.363,526.793,682.273 Q538.731,671.183,538.731,647.943 L538.731,647.943 Q538.731,624.845,526.793,613.648 Q514.855,602.452,490.909,602.452 L490.909,602.452 Q481.231,602.452,469.647,604.289 L469.647,604.289 L469.647,691.951 Q478.335,693.363,490.555,693.363 L490.555,693.363 Z M626.957,701.558 Q612.618,701.558,603.364,697.037 Q594.111,692.516,589.590,683.156 Q585.069,673.797,585.069,659.033 L585.069,659.033 L585.069,595.742 L593.970,595.742 L593.970,660.022 Q593.970,671.890,597.537,679.307 Q601.104,686.724,608.344,690.255 Q615.585,693.787,626.957,693.787 L626.957,693.787 Q638.330,693.787,645.606,690.255 Q652.882,686.724,656.449,679.307 Q660.016,671.890,660.016,660.022 L660.016,660.022 L660.016,595.742 L668.705,595.742 L668.705,659.033 Q668.705,673.797,664.219,683.156 Q659.734,692.516,650.515,697.037 Q641.297,701.558,626.957,701.558 L626.957,701.558 Z M757.143,701.558 Q732.985,701.558,719.423,688.843 Q705.860,676.128,705.860,648.155 L705.860,648.155 Q705.860,621.101,719.635,607.786 Q733.409,594.470,758.344,594.470 L758.344,594.470 Q765.549,594.470,771.836,595.353 Q778.123,596.236,784.692,598.073 L784.692,598.073 L784.692,605.914 Q771.695,602.240,758.556,602.240 L758.556,602.240 Q737.365,602.240,726.310,613.189 Q715.255,624.138,715.255,647.873 L715.255,647.873 Q715.255,672.455,726.169,683.121 Q737.082,693.787,757.567,693.787 L757.567,693.787 Q764.702,693.787,771.059,692.763 Q777.416,691.739,784.692,689.266 L784.692,689.266 L784.692,697.178 Q772.260,701.558,757.143,701.558 L757.143,701.558 Z M852.646,700.286 L843.816,700.286 L843.816,603.441 L804.259,603.441 L804.259,595.742 L892.133,595.742 L892.133,603.441 L852.646,603.441 L852.646,700.286 Z" id="def-79c5bab5-95d9-4f09-99da-f4886eccafcc"></path><path d="M428.733,760.972 L438.678,734.497 L448.963,734.497 L448.963,776.315 L441.165,776.315 L441.165,746.393 L431.925,770.268 L425.229,770.268 L415.990,747.071 L415.990,776.315 L408.191,776.315 L408.191,734.497 L418.476,734.497 L428.733,760.972 Z M466.934,758.542 L466.934,769.110 L484.480,769.110 L484.480,776.315 L458.683,776.315 L458.683,734.497 L484.198,734.497 L484.198,741.702 L466.934,741.702 L466.934,751.337 L481.372,751.337 L481.372,758.542 L466.934,758.542 Z M517.991,739.216 L501.264,768.884 L518.273,768.884 L518.273,776.315 L490.414,776.315 L490.414,771.596 L507.141,741.928 L490.696,741.928 L490.696,734.497 L517.991,734.497 L517.991,739.216 Z M551.445,739.216 L534.718,768.884 L551.728,768.884 L551.728,776.315 L523.868,776.315 L523.868,771.596 L540.595,741.928 L524.150,741.928 L524.150,734.497 L551.445,734.497 L551.445,739.216 Z M574.982,776.852 Q567.070,776.852,562.592,771.653 Q558.113,766.454,558.113,755.406 L558.113,755.406 Q558.113,744.358,562.592,739.159 Q567.070,733.960,574.982,733.960 L574.982,733.960 Q582.893,733.960,587.357,739.159 Q591.822,744.358,591.822,755.406 L591.822,755.406 Q591.822,766.454,587.357,771.653 Q582.893,776.852,574.982,776.852 L574.982,776.852 Z M574.982,769.873 Q577.638,769.873,579.446,768.502 Q581.254,767.132,582.229,763.982 Q583.204,760.831,583.204,755.604 L583.204,755.604 Q583.204,750.179,582.243,746.944 Q581.283,743.708,579.474,742.324 Q577.666,740.939,574.982,740.939 L574.982,740.939 Q572.297,740.939,570.489,742.310 Q568.681,743.680,567.720,746.831 Q566.759,749.981,566.759,755.208 L566.759,755.208 Q566.759,760.633,567.720,763.869 Q568.681,767.104,570.489,768.488 Q572.297,769.873,574.982,769.873 L574.982,769.873 Z" id="def-a66eac6d-93b5-466f-ae16-8b4795e05bfe"></path><mask id="mask-bd26b1f1-a1dc-431c-9a99-30a39981abbc" x="69.259" y="195.251" width="861.482" height="613.790" maskUnits="userSpaceOnUse" stroke-width="0"><rect x="97.159" y="223.150" width="805.683" height="557.991" fill="#000"></rect><use xlink:href="#def-d7a95254-4104-4351-b86f-beaa8fc5b8cd" fill="#fff" stroke="#fff"></use><use xlink:href="#def-79c5bab5-95d9-4f09-99da-f4886eccafcc" fill="#fff" stroke="#fff"></use><use xlink:href="#def-a66eac6d-93b5-466f-ae16-8b4795e05bfe" fill="#fff" stroke="#fff"></use></mask></defs><rect id="background-shape-c768b5a6-d31a-4fe7-af2c-5a67b8c45528" x="-273.063" y="0.000" width="1546.125" height="1000.000" fill="url(#gradient-0021eb70-8ac0-4942-b252-2f3dc0c0e899)"></rect><g mask="url(#mask-bd26b1f1-a1dc-431c-9a99-30a39981abbc)"><rect x="97.159" y="223.150" width="805.683" height="557.991" fill="#0d1324"></rect></g><g opacity="0"><rect fill="none" stroke="#fff" stroke-dasharray="11.07010739856802" stroke-dashoffset="0" stroke-width="1.8450178997613365"></rect><rect fill="none" stroke="#000" stroke-dasharray="11.07010739856802" stroke-dashoffset="11.07010739856802" stroke-width="1.8450178997613365"></rect></g><g opacity="1"><rect fill="none" stroke="#fff" stroke-dasharray="5.53505369928401" stroke-dashoffset="0" stroke-width="1.8450178997613365" x="-263.063" y="10" width="1526.125" height="980"></rect><rect fill="none" stroke="#000" stroke-dasharray="5.53505369928401" stroke-dashoffset="5.53505369928401" stroke-width="1.8450178997613365" x="-263.063" y="10" width="1526.125" height="980"></rect></g></svg>