<svg version="1.1" preserveAspectRatio="xMidYMid meet" xmlns="http://www.w3.org/2000/svg" xmlns:xlink="http://www.w3.org/1999/xlink" viewBox="-273.063 0.000 1546.125 1000.000" style="cursor: pointer;"><defs><radialGradient id="gradient-1d94659f-5568-498c-a87e-9d9350c32211" gradientUnits="objectBoundingBox" gradientTransform="translate(0.5, 0.5) scale(1, 1.546) translate(-0.5, -0.5)" cx="0.875" cy="0.125" r="1.030"><stop offset="0.000" stop-color="#ff41ff" stop-opacity="1"></stop><stop offset="0.250" stop-color="#ff2eff" stop-opacity="1"></stop><stop offset="0.500" stop-color="#e00efb" stop-opacity="1"></stop><stop offset="0.750" stop-color="#bb00f6" stop-opacity="1"></stop><stop offset="1.000" stop-color="#9500f4" stop-opacity="1"></stop></radialGradient><g transform="matrix(3.287, 0.000, 0.000, 3.287, 334.005, 193.668)" fill="#fff" stroke="none" stroke-width="1" id="def-553e6af7-0560-40d8-98a6-ddd329f8af79"><g transform="translate(0.5000000035164476, 0.5000000263997748)"><g stroke="none" stroke-width="1" fill="none" fill-rule="evenodd"><g fill="#fff"><path d=" M34.792,52.003 L34.792,52.003 L37.64,49.156 C39.543,47.252 41.538,46.542 43.406,46.516 C43.822,47.788 44.536,48.984 45.548,49.996 L50.003,54.451 C53.442,57.891 59.006,57.89 62.444,54.453 L87.359,29.538 C90.795,26.102 90.794,20.534 87.356,17.097 L82.902,12.642 C79.462,9.202 73.898,9.203 70.461,12.64 L51.937,31.164 C48.564,29.691 43.825,28.509 39.098,29.773 L63.345,5.525 C70.71,-1.839 82.645,-1.845 90.017,5.527 L94.472,9.982 C101.837,17.348 101.84,29.286 94.474,36.653 L69.559,61.568 C62.194,68.933 50.259,68.938 42.888,61.566 L38.433,57.111 C36.901,55.579 35.687,53.849 34.792,52.003 L34.792,52.003 Z M51.401,28.871 C57.283,22.989 69.046,11.226 69.046,11.226 C73.265,7.007 80.095,7.008 84.316,11.228 L88.771,15.683 C92.989,19.901 92.99,26.735 88.773,30.952 L63.858,55.867 C59.639,60.086 52.809,60.085 48.588,55.865 L44.133,51.41 C43.508,50.785 42.968,50.094 42.521,49.353 C42.099,48.656 42.142,48.687 42.142,48.687 C41.083,48.96 40.057,49.566 39.054,50.57 C39.054,50.57 38.223,51.401 37.807,51.816 C37.274,52.35 37.272,52.393 37.272,52.393 C37.983,53.586 38.844,54.694 39.847,55.697 L44.302,60.152 C50.89,66.74 61.559,66.739 68.144,60.154 L93.059,35.239 C99.644,28.654 99.643,17.982 93.057,11.396 L88.602,6.941 C82.014,0.353 71.345,0.354 64.76,6.939 L44.343,27.356 C44.343,27.356 48.122,27.186 51.401,28.871 L51.401,28.871 Z M65.229,48.047 L62.087,51.19 C62.087,51.19 60.002,53.274 56.582,53.456 C56.165,52.194 55.454,51.008 54.45,50.004 L49.995,45.549 C46.555,42.109 40.991,42.11 37.554,45.547 L12.639,70.462 C9.203,73.898 9.203,79.466 12.641,82.903 L17.096,87.358 C20.535,90.798 26.1,90.797 29.537,87.36 L48.097,68.799 L48.458,68.934 C53.423,71.029 57.747,70.894 61.157,69.97 L36.652,94.475 C29.287,101.839 17.352,101.845 9.981,94.473 L5.526,90.018 C-1.84,82.652 -1.843,70.714 5.524,63.347 L30.439,38.432 C37.803,31.067 49.738,31.062 57.11,38.434 L61.565,42.889 C63.111,44.435 64.332,46.183 65.229,48.047 L65.229,48.047 Z M54.635,72.544 C52.897,72.398 51.129,72.028 49.344,71.415 C48.817,71.234 48.604,71.121 48.604,71.121 C42.72,77.005 30.951,88.774 30.951,88.774 C26.732,92.993 19.902,92.992 15.681,88.772 L11.227,84.317 C7.008,80.099 7.007,73.265 11.224,69.048 L36.139,44.133 C40.358,39.914 47.188,39.915 51.409,44.135 L55.864,48.59 C56.407,49.133 56.886,49.726 57.296,50.358 C57.795,51.128 57.808,51.257 57.808,51.257 C58.415,51.104 58.986,50.872 59.518,50.578 C60.114,50.25 60.512,49.936 60.673,49.775 L62.776,47.693 C62.056,46.468 61.177,45.33 60.15,44.303 L55.695,39.848 C49.107,33.26 38.438,33.261 31.853,39.846 L6.938,64.761 C0.353,71.346 0.354,82.018 6.94,88.604 L11.395,93.059 C17.983,99.647 28.652,99.646 35.238,93.061 C35.238,93.061 48.637,79.661 55.523,72.776 L55.714,72.584 C55.714,72.584 55.99,72.658 54.635,72.544 L54.635,72.544 Z"></path></g></g></g></g><path d="M191.196,728.600 Q183.684,728.600,175.990,727.397 Q168.296,726.193,161.367,723.860 L161.367,723.860 L161.367,715.837 Q168.806,718.317,176.537,719.520 Q184.268,720.724,191.342,720.724 L191.342,720.724 Q222.849,720.724,222.849,698.844 L222.849,698.844 Q222.849,692.790,220.224,688.815 Q217.598,684.841,211.982,682.288 Q206.366,679.735,196.885,677.839 L196.885,677.839 L190.905,676.672 Q174.787,673.609,167.311,666.535 Q159.835,659.460,159.835,647.645 L159.835,647.645 Q159.835,638.456,164.357,631.819 Q168.879,625.182,177.886,621.608 Q186.893,618.034,200.167,618.034 L200.167,618.034 Q214.972,618.034,227.444,621.900 L227.444,621.900 L227.444,629.922 Q214.316,625.911,200.094,625.911 L200.094,625.911 Q184.560,625.911,176.829,631.381 Q169.098,636.851,169.098,647.207 L169.098,647.207 Q169.098,653.261,171.432,657.272 Q173.766,661.283,178.944,663.909 Q184.122,666.535,193.020,668.285 L193.020,668.285 L199.073,669.452 Q210.888,671.786,218.181,675.615 Q225.475,679.444,228.830,685.023 Q232.185,690.602,232.185,698.406 L232.185,698.406 Q232.185,708.033,227.371,714.816 Q222.557,721.599,213.368,725.099 Q204.178,728.600,191.196,728.600 L191.196,728.600 Z M277.913,727.287 L268.724,727.287 L268.724,619.347 L277.913,619.347 L277.913,667.701 L346.980,667.701 L346.980,619.347 L356.170,619.347 L356.170,727.287 L346.980,727.287 L346.980,676.016 L277.913,676.016 L277.913,727.287 Z M444.637,728.600 Q429.540,728.600,418.454,722.620 Q407.369,716.639,401.242,704.277 Q395.116,691.915,395.116,673.317 L395.116,673.317 Q395.116,654.719,401.315,642.357 Q407.515,629.995,418.637,624.015 Q429.759,618.034,444.637,618.034 L444.637,618.034 Q459.661,618.034,470.747,624.015 Q481.833,629.995,487.959,642.357 Q494.086,654.719,494.086,673.317 L494.086,673.317 Q494.086,691.915,487.886,704.277 Q481.687,716.639,470.601,722.620 Q459.516,728.600,444.637,728.600 L444.637,728.600 Z M444.637,720.578 Q463.381,720.578,473.993,709.164 Q484.604,697.750,484.604,673.682 L484.604,673.682 Q484.604,649.104,473.993,637.580 Q463.381,626.057,444.637,626.057 L444.637,626.057 Q425.894,626.057,415.282,637.434 Q404.670,648.812,404.670,672.953 L404.670,672.953 Q404.670,697.604,415.245,709.091 Q425.821,720.578,444.637,720.578 L444.637,720.578 Z M616.758,727.287 L605.964,727.287 L567.893,681.340 Q563.955,681.486,561.767,681.486 L561.767,681.486 Q556.662,681.486,552.395,681.267 Q548.129,681.048,542.075,680.611 L542.075,680.611 L542.075,727.287 L533.032,727.287 L533.032,621.462 Q540.471,619.931,547.946,619.092 Q555.422,618.253,564.320,618.253 L564.320,618.253 Q579.709,618.253,589.518,621.499 Q599.327,624.744,604.141,631.636 Q608.954,638.528,608.954,649.614 L608.954,649.614 Q608.954,675.578,577.739,680.392 L577.739,680.392 L616.758,727.287 Z M542.075,673.026 Q548.056,673.536,552.031,673.755 Q556.005,673.974,562.132,673.974 L562.132,673.974 Q575.551,673.974,583.939,671.312 Q592.326,668.650,596.228,663.326 Q600.130,658.001,600.130,649.833 L600.130,649.833 Q600.130,640.862,596.483,635.611 Q592.836,630.360,585.106,628.063 Q577.375,625.765,564.611,625.765 L564.611,625.765 Q557.829,625.765,552.833,626.239 Q547.837,626.713,542.075,627.734 L542.075,627.734 L542.075,673.026 Z M688.743,727.287 L679.626,727.287 L679.626,627.297 L638.784,627.297 L638.784,619.347 L729.512,619.347 L729.512,627.297 L688.743,627.297 L688.743,727.287 Z M830.159,619.347 L840.224,619.347 L797.121,678.641 L797.121,727.287 L787.931,727.287 L787.931,678.641 L744.026,619.347 L754.674,619.347 L792.672,670.838 L830.159,619.347 Z" id="def-71749752-7204-453c-a845-2824c6428a4b"></path><path d="M426.418,789.939 L436.686,762.604 L447.305,762.604 L447.305,805.780 L439.254,805.780 L439.254,774.886 L429.714,799.537 L422.800,799.537 L413.261,775.586 L413.261,805.780 L405.209,805.780 L405.209,762.604 L415.828,762.604 L426.418,789.939 Z M465.860,787.430 L465.860,798.341 L483.976,798.341 L483.976,805.780 L457.341,805.780 L457.341,762.604 L483.684,762.604 L483.684,770.043 L465.860,770.043 L465.860,779.991 L480.767,779.991 L480.767,787.430 L465.860,787.430 Z M518.575,767.476 L501.305,798.108 L518.867,798.108 L518.867,805.780 L490.102,805.780 L490.102,800.908 L507.373,770.277 L490.394,770.277 L490.394,762.604 L518.575,762.604 L518.575,767.476 Z M553.116,767.476 L535.846,798.108 L553.408,798.108 L553.408,805.780 L524.643,805.780 L524.643,800.908 L541.914,770.277 L524.935,770.277 L524.935,762.604 L553.116,762.604 L553.116,767.476 Z M577.417,806.334 Q569.249,806.334,564.625,800.967 Q560.001,795.599,560.001,784.192 L560.001,784.192 Q560.001,772.785,564.625,767.418 Q569.249,762.050,577.417,762.050 L577.417,762.050 Q585.586,762.050,590.195,767.418 Q594.804,772.785,594.804,784.192 L594.804,784.192 Q594.804,795.599,590.195,800.967 Q585.586,806.334,577.417,806.334 L577.417,806.334 Z M577.417,799.129 Q580.160,799.129,582.027,797.714 Q583.894,796.299,584.900,793.046 Q585.907,789.793,585.907,784.396 L585.907,784.396 Q585.907,778.795,584.915,775.455 Q583.923,772.114,582.056,770.685 Q580.189,769.255,577.417,769.255 L577.417,769.255 Q574.646,769.255,572.779,770.670 Q570.912,772.085,569.920,775.338 Q568.928,778.591,568.928,783.988 L568.928,783.988 Q568.928,789.589,569.920,792.929 Q570.912,796.270,572.779,797.699 Q574.646,799.129,577.417,799.129 L577.417,799.129 Z" id="def-b7456e95-d60f-460a-b62e-04cce2ab9c1f"></path><mask id="mask-2f122eac-e1ce-4383-a6f1-fd9ca92c3ede" x="117.865" y="162.813" width="764.270" height="678.805" maskUnits="userSpaceOnUse" stroke-width="0"><rect x="148.720" y="193.668" width="702.561" height="617.095" fill="#000"></rect><use xlink:href="#def-553e6af7-0560-40d8-98a6-ddd329f8af79" fill="#fff" stroke="#fff"></use><use xlink:href="#def-71749752-7204-453c-a845-2824c6428a4b" fill="#fff" stroke="#fff"></use><use xlink:href="#def-b7456e95-d60f-460a-b62e-04cce2ab9c1f" fill="#fff" stroke="#fff"></use></mask></defs><rect id="background-shape-c3b8f3cd-bcf0-477f-9447-4fa2095eecbf" x="-273.063" y="0.000" width="1546.125" height="1000.000" fill="url(#gradient-1d94659f-5568-498c-a87e-9d9350c32211)"></rect><g mask="url(#mask-2f122eac-e1ce-4383-a6f1-fd9ca92c3ede)"><rect x="148.720" y="193.668" width="702.561" height="617.095" fill="#0d1324"></rect></g><g opacity="0"><rect fill="none" stroke="#fff" stroke-dasharray="11.07010739856802" stroke-dashoffset="0" stroke-width="1.8450178997613365" x="-263.063" y="10" width="1526.125" height="980"></rect><rect fill="none" stroke="#000" stroke-dasharray="11.07010739856802" stroke-dashoffset="11.07010739856802" stroke-width="1.8450178997613365" x="-263.063" y="10" width="1526.125" height="980"></rect></g><g opacity="1"><rect fill="none" stroke="#fff" stroke-dasharray="5.53505369928401" stroke-dashoffset="0" stroke-width="1.8450178997613365" x="324.0046081542969" y="183.66781616210938" width="351.99079873489404" height="351.99079888533083"></rect><rect fill="none" stroke="#000" stroke-dasharray="5.53505369928401" stroke-dashoffset="5.53505369928401" stroke-width="1.8450178997613365" x="324.0046081542969" y="183.66781616210938" width="351.99079873489404" height="351.99079888533083"></rect></g></svg>